<?xml version="1.0" encoding="UTF-8"?>
<svg version="1.1" xmlns="http://www.w3.org/2000/svg" width="512" height="512">
<path d="M0 0 C0.86902954 -0.00554901 1.73805908 -0.01109802 2.63342285 -0.01681519 C5.50349287 -0.028614 8.37198384 -0.00432045 11.24194336 0.02148438 C13.24629138 0.02319657 15.25064165 0.02312869 17.25498962 0.0213623 C21.45911045 0.02301609 25.66269847 0.04171434 29.86669922 0.07324219 C35.22732519 0.11274047 40.58724766 0.11730836 45.94799137 0.10977936 C50.09102192 0.10669152 54.23389758 0.11889726 58.37689018 0.13591003 C60.3514248 0.14289299 62.32597698 0.14607034 64.30052376 0.1452179 C83.17383902 0.15758996 98.26192709 2.41261071 112.52709961 15.85742188 C120.15156897 23.5253355 127.51113376 31.46687442 134.56616211 39.66210938 C136.76294616 42.18135714 139.0161833 44.64626433 141.26928711 47.11523438 C144.70193472 50.87873958 148.08483721 54.67652788 151.42553711 58.52148438 C153.67805168 61.07942465 155.97245803 63.59702418 158.26928711 66.11523438 C161.70193472 69.87873958 165.08483721 73.67652788 168.42553711 77.52148438 C170.67805168 80.07942465 172.97245803 82.59702418 175.26928711 85.11523438 C180.76721309 91.14791304 186.24186513 97.18013424 191.26928711 103.61523438 C198.61894274 101.25312166 205.78035535 98.5195191 212.95678711 95.67773438 C214.0002832 95.26716797 215.0437793 94.85660156 216.11889648 94.43359375 C234.1158746 87.33575865 252.06260485 80.10927997 270.01515102 72.89995098 C276.57722184 70.26479431 283.14014374 67.63176472 289.70359898 65.00005817 C293.918354 63.30993116 298.13255366 61.6184422 302.34570312 59.92431641 C306.51580827 58.24757638 310.68725717 56.5742217 314.85965157 54.9031868 C316.42574164 54.27528445 317.99134967 53.6461783 319.55644035 53.01578903 C321.72498626 52.14254786 323.89523154 51.27366574 326.06591797 50.40576172 C326.69492508 50.15128265 327.32393219 49.89680359 327.97200012 49.63461304 C339.72263055 44.95599472 350.47037646 43.75607778 362.48413086 48.29882812 C371.6920004 52.65093477 378.19969783 59.78785609 382.36694336 69.05664062 C385.73674367 78.82122478 385.28381732 89.13070684 381.26928711 98.61523438 C376.61522578 107.71544363 369.46963845 113.95262207 360.64038086 118.94335938 C358.98619141 119.88308594 358.98619141 119.88308594 357.29858398 120.84179688 C356.10133802 121.51631095 354.90407183 122.19078911 353.70678711 122.86523438 C352.45326941 123.57570895 351.20001894 124.28665519 349.94702148 124.99804688 C347.34567525 126.47448328 344.74319498 127.94889073 342.13989258 129.421875 C336.17219568 132.80070891 330.22168036 136.20953354 324.26928711 139.61523438 C321.93613467 140.94888435 319.60271047 142.28205849 317.26928711 143.61523438 C316.10261544 144.28189228 314.93594877 144.94855894 313.76928711 145.61523438 C222.76928712 197.61523437 222.76928712 197.61523437 221.01948547 198.6151123 C219.85214758 199.28216835 218.68481971 199.94924193 217.51750183 200.61633301 C214.61118654 202.27718589 211.70466335 203.93767231 208.79785156 205.59765625 C202.79874244 209.02382197 196.80299262 212.45569799 190.81225586 215.89648438 C183.97561932 219.82223929 177.12615954 223.72490689 170.26928711 227.61523438 C169.45556641 228.07994141 168.6418457 228.54464844 167.8034668 229.0234375 C148.30322988 240.11370293 125.75235816 244.64171796 103.58178711 239.05273438 C92.23422524 235.68170135 82.23513465 230.36908624 73.26928711 222.61523438 C72.17854492 221.68377192 71.08736371 220.75282342 69.99584961 219.82226562 C67.57191335 217.75098062 65.15553101 215.67121833 62.74194336 213.58789062 C59.81164996 211.06718233 56.83666427 208.60940099 53.83178711 206.17773438 C48.72700868 202.03527058 43.77306029 197.73404338 38.81860352 193.41455078 C34.30969385 189.49261334 29.72221694 185.68484323 25.07788086 181.92382812 C21.15451687 178.69892115 17.31518274 175.37948291 13.46923828 172.06298828 C9.8634465 168.9607102 6.21715953 165.920504 2.51928711 162.92773438 C-11.96118164 151.15429688 -11.96118164 151.15429688 -13.73071289 147.61523438 C-13.83494777 145.75153105 -13.87460052 143.8840909 -13.88461304 142.01750183 C-13.8932135 140.82716843 -13.90181396 139.63683502 -13.91067505 138.41043091 C-13.914935 137.09767181 -13.91919495 135.78491272 -13.92358398 134.43237305 C-13.93148429 133.04119155 -13.9397532 131.65001211 -13.94836426 130.25883484 C-13.97459177 125.6836442 -13.98989219 121.10844437 -14.00415039 116.53320312 C-14.00950969 114.9589112 -14.0148872 113.38461933 -14.02028275 111.81032753 C-14.04191218 105.26240298 -14.06064944 98.7144809 -14.07190514 92.16652966 C-14.08814813 82.77862514 -14.12133322 73.39113428 -14.17830598 64.00338572 C-14.2169894 57.40459566 -14.23653588 50.8059163 -14.2418257 44.20701581 C-14.2454813 40.26468103 -14.25752382 36.32278735 -14.28992844 32.38057518 C-14.31998166 28.67124283 -14.32633132 24.96261909 -14.31454468 21.25319099 C-14.3142184 19.24426777 -14.33870225 17.23538847 -14.36392212 15.22662354 C-14.30383999 6.56806822 -14.30383999 6.56806822 -11.73991394 2.30549622 C-7.68611253 0.02848457 -4.58128041 -0.07463889 0 0 Z M3.26928711 17.61523438 C3.01178666 33.47940054 2.81809083 49.34299838 2.69935322 65.20873833 C2.64274325 72.57639492 2.56563679 79.94274968 2.43945312 87.30957031 C2.32946159 93.73415471 2.25876623 100.15779611 2.23431367 106.58329594 C2.22002807 109.98299747 2.1867179 113.38000258 2.10625648 116.7788353 C1.00915924 131.24952616 1.00915924 131.24952616 5.60458374 144.40582275 C8.38047752 146.97000647 10.99216644 148.7600565 14.26928711 150.61523438 C16.06260411 152.04582898 17.8366894 153.50120087 19.58178711 154.99023438 C20.48799805 155.72242188 21.39420898 156.45460938 22.32788086 157.20898438 C25.64316688 159.92109087 28.89798388 162.69629218 32.14428711 165.49023438 C38.2862736 170.77525794 44.46021053 176.02056218 50.65161133 181.24755859 C52.2983769 182.63982855 53.94238778 184.0352891 55.58569336 185.43164062 C61.49591838 190.45067577 67.43551371 195.42312792 73.46850586 200.29492188 C75.47323337 201.95574215 77.419599 203.63203291 79.35131836 205.37304688 C86.79875536 212.02829994 93.9991666 216.77366141 103.26928711 220.61523438 C104.12393555 220.97488281 104.97858398 221.33453125 105.85913086 221.70507812 C121.98123727 227.23192977 139.6847441 223.79578832 154.58178711 216.74023438 C162.10409559 212.83762079 169.38785277 208.52262388 176.68847656 204.22314453 C183.99578522 199.92167515 191.3582157 195.73507338 198.76928711 191.61523438 C206.9915169 187.03994589 215.15511035 182.37952165 223.26928711 177.61523438 C232.41842 172.24326644 241.64331842 167.02446912 250.91381836 161.86523438 C258.08282406 157.86558985 265.19021474 153.77175393 272.26928711 149.61523438 C280.38347561 144.85094021 288.54732107 140.19100938 296.76928711 135.61523438 C306.03253259 130.45930416 315.21843477 125.18705645 324.35522461 119.81030273 C329.40691939 116.84385201 334.4783871 113.92674755 339.60522461 111.09179688 C340.6388916 110.51824463 341.67255859 109.94469238 342.73754883 109.35375977 C344.6902861 108.27423477 346.64734765 107.20247675 348.60961914 106.14038086 C355.55868179 102.2926101 362.14944393 98.19246974 366.26928711 91.24023438 C368.15705434 84.39707815 368.14702227 78.74772666 364.60131836 72.47070312 C360.9578155 67.39544254 356.44545389 63.90193579 350.26928711 62.61523438 C344.99711564 62.31004487 341.26232908 63.06449063 336.36865234 65.00610352 C335.69082671 65.27127557 335.01300108 65.53644762 334.31463528 65.80965519 C332.79510219 66.406364 331.27782946 67.00885102 329.76249313 67.61613846 C327.10948716 68.67927059 324.45071106 69.72693923 321.790802 70.77267456 C315.41348454 73.28504584 309.04636704 75.82275719 302.67944336 78.36132812 C300.32169442 79.30016501 297.96390038 80.23888864 295.60606384 81.17750549 C290.68814783 83.1356449 285.7706496 85.09482944 280.85351562 87.05493164 C275.21807369 89.30135729 269.58190782 91.5459584 263.94533259 93.7895388 C258.46145576 95.97237305 252.97804367 98.15637236 247.49484062 100.34089851 C245.18960216 101.25922348 242.88426252 102.17729449 240.57881355 103.09509087 C234.39052906 105.55907313 228.20484201 108.02933004 222.02370071 110.51118088 C220.20843758 111.23879405 218.39220112 111.96398431 216.5749321 112.68657303 C214.14289749 113.65393916 211.71436053 114.6295811 209.28662109 115.60766602 C208.57879266 115.88694915 207.87096422 116.16623228 207.14168644 116.45397854 C203.5303061 117.73182025 203.5303061 117.73182025 201.26928711 120.61523438 C201.76480389 122.25213383 202.26121177 123.88876959 202.76245117 125.52392578 C205.66098039 137.48384933 203.8719464 151.59134706 197.80834961 162.16210938 C196.37250273 164.39240961 194.88423144 166.51176939 193.26928711 168.61523438 C192.3450293 169.86820312 192.3450293 169.86820312 191.40209961 171.14648438 C184.38419576 179.26977235 172.76276445 184.21080433 162.26928711 185.61523438 C147.62320572 186.59289321 134.45692759 183.26414806 123.26928711 173.49023438 C116.06078642 166.68912148 109.60640455 159.18248276 103.11303711 151.70898438 C100.86052254 149.1510441 98.56611619 146.63344457 96.26928711 144.11523438 C92.81353298 140.32589311 89.40405821 136.5043974 86.03881836 132.63476562 C82.49351757 128.58858348 78.87469712 124.6078025 75.26928711 120.61523438 C64.14476653 108.2961344 64.14476653 108.2961344 59.26928711 102.61523438 C58.53967773 101.79925781 57.81006836 100.98328125 57.05834961 100.14257812 C51.44319816 93.61127039 51.44319816 93.61127039 50.58178711 88.67773438 C51.26928711 85.61523438 51.26928711 85.61523438 52.33178711 83.74023438 C55.5467456 81.87348429 57.51743456 81.49222282 61.26928711 81.61523438 C70.65816686 87.11358467 78.38775537 98.39816779 85.46069336 106.55664062 C87.69939961 109.10480087 89.98338923 111.6093403 92.26928711 114.11523438 C95.70193472 117.87873958 99.08483721 121.67652788 102.42553711 125.52148438 C105.52688945 129.04335907 108.70442044 132.49600459 111.86694336 135.96289062 C113.83870555 138.13984433 115.78294048 140.33362112 117.70678711 142.55273438 C133.33652134 161.73894947 133.33652134 161.73894947 155.76538086 169.60742188 C164.01348448 169.63315699 170.78808439 166.63950557 177.26928711 161.61523438 C183.52228705 155.26838078 187.50091461 147.8328217 188.32788086 138.87695312 C187.98592864 125.67759738 180.63184406 116.60345419 171.83178711 107.55273438 C170.56090089 106.22981597 169.29136564 104.90559838 168.02319336 103.58007812 C167.40154297 102.93039062 166.77989258 102.28070313 166.1394043 101.61132812 C163.63605033 98.93934091 161.23218366 96.18783598 158.83447266 93.42114258 C156.88227031 91.1686951 154.89204426 88.9523103 152.89428711 86.74023438 C152.13631836 85.89976562 151.37834961 85.05929687 150.59741211 84.19335938 C149.82913086 83.34257812 149.06084961 82.49179687 148.26928711 81.61523438 C139.70068504 72.12651396 139.70068504 72.12651396 135.83178711 67.67773438 C132.17870754 63.48220216 128.42423162 59.38149884 124.67553711 55.27148438 C122.11902759 52.44936348 119.61385374 49.58758413 117.11694336 46.71289062 C113.99761223 43.17149355 110.80145884 39.70016645 107.60913086 36.22460938 C105.73419362 34.13369439 103.99567488 32.01329322 102.26928711 29.80273438 C96.81163095 23.3919101 88.39694629 19.35096124 80.26928711 17.61523438 C74.35907603 17.20451263 68.46800514 17.2651473 62.54663086 17.32226562 C60.83313877 17.32786939 59.11964183 17.3321358 57.40614319 17.33512878 C52.92296798 17.34651617 48.44009001 17.37592988 43.95703125 17.40924072 C39.3717043 17.44007415 34.78632875 17.45366234 30.20092773 17.46875 C21.22358447 17.50080617 12.24646063 17.55192757 3.26928711 17.61523438 Z " fill="#2493FF" transform="translate(70.730712890625,239.384765625)"/>
<path d="M0 0 C14.08012428 10.24009039 22.58463212 24.0421379 25.87890625 41.09375 C28.52292684 58.2615226 25.1531269 73.5365358 15.87890625 88.09375 C13.42559475 91.35881899 10.80957039 94.25667992 7.87890625 97.09375 C6.97527344 97.99738281 6.07164062 98.90101563 5.140625 99.83203125 C4.39425781 100.57839844 3.64789063 101.32476562 2.87890625 102.09375 C3.94367188 102.55523437 5.0084375 103.01671875 6.10546875 103.4921875 C32.82700967 115.36773959 51.82469595 134.33928324 63.87890625 161.09375 C64.24113281 161.87105469 64.60335937 162.64835938 64.9765625 163.44921875 C68.32756211 171.75658057 68.32079717 182.13967537 65.31640625 190.53125 C60.79506407 200.04820102 53.82221594 205.46220381 44.12213135 209.13858032 C38.10165473 210.81255579 31.7778005 210.3893853 25.58105469 210.38427734 C24.12990475 210.39026825 22.67875798 210.39707509 21.22761536 210.40463257 C17.29971343 210.42224427 13.37189874 210.42698595 9.44396114 210.42826414 C6.98528839 210.42968923 4.52663756 210.43396564 2.06797028 210.43925858 C-6.52289733 210.45774408 -15.11370301 210.46593119 -23.70458984 210.46435547 C-31.69066551 210.46315502 -39.67647051 210.48424205 -47.66247773 210.5158428 C-54.53663209 210.54206674 -61.41069839 210.55272018 -68.28490233 210.55144465 C-72.38264098 210.55093674 -76.48013899 210.55652454 -80.57782745 210.57780075 C-84.43575101 210.59728631 -88.29320697 210.59723802 -92.15114784 210.58276749 C-93.55914055 210.58069087 -94.96716333 210.58531114 -96.3751049 210.5974884 C-109.10174279 210.70034493 -118.63667954 208.57734302 -127.953125 199.6015625 C-134.09929603 192.49193763 -136.59498027 184.38370172 -136.45703125 175.0859375 C-134.02294045 153.40554733 -117.48523522 131.7917704 -101.0078125 118.6015625 C-93.59776275 112.98665947 -85.81523555 108.65563511 -77.421875 104.6875 C-74.08824712 103.17132935 -74.08824712 103.17132935 -71.12109375 101.09375 C-71.61738281 100.68125 -72.11367188 100.26875 -72.625 99.84375 C-85.06939455 89.26483395 -93.88996561 76.70714096 -95.30126953 59.95507812 C-96.42262287 40.904129 -92.04256054 23.98201448 -79.37109375 9.21875 C-58.9038998 -12.05229145 -24.87385245 -15.63310034 0 0 Z M-67.22265625 21.265625 C-76.65672717 32.90766996 -79.55630526 45.3158433 -78.12109375 60.09375 C-76.07313735 70.61558585 -70.50707161 80.09262599 -62.0703125 86.78515625 C-50.50700029 94.54810132 -38.73965677 96.33944522 -25.12109375 95.09375 C-14.64904472 92.91258949 -4.77103959 86.45605689 1.87890625 78.09375 C9.05804505 66.87634563 11.54790523 54.15762623 8.75390625 41.21875 C5.49310541 29.25740114 -0.96288837 19.49747461 -11.78125 13.2265625 C-30.22765167 4.29591729 -52.52220234 6.07333434 -67.22265625 21.265625 Z M-101.37109375 142.46875 C-109.41308898 151.95502192 -118.69646332 165.22771586 -119.35546875 178.03125 C-118.76219091 183.25209502 -116.29622155 186.97594551 -112.55859375 190.53125 C-108.70189625 193.00349199 -105.7811132 193.22159003 -101.29594421 193.23419189 C-100.08043884 193.23990204 -98.86493347 193.24561218 -97.6125946 193.25149536 C-96.26345835 193.2527407 -94.91432199 193.2538658 -93.56518555 193.25488281 C-92.14592357 193.25951159 -90.72666284 193.26453633 -89.30740356 193.26992798 C-85.44986383 193.28304852 -81.5923415 193.28949629 -77.73478293 193.29393864 C-75.3244203 193.29687 -72.91406241 193.30097494 -70.50370216 193.30544281 C-62.96132068 193.31911702 -55.41895007 193.32878397 -47.87655705 193.3326447 C-39.17171075 193.337125 -30.4670215 193.35467183 -21.76222295 193.3836453 C-15.03260943 193.40526645 -8.30304009 193.41534922 -1.57339221 193.41668582 C2.44540423 193.41773357 6.46405302 193.42363482 10.48281288 193.44150543 C14.26426404 193.45799362 18.04545668 193.46013811 21.826931 193.45136642 C23.21283219 193.45059644 24.59874731 193.45493378 25.98461342 193.46482468 C27.88063515 193.47756014 29.77676091 193.46986985 31.67280579 193.46124268 C32.73265843 193.46270924 33.79251108 193.4641758 34.88448048 193.4656868 C40.97127427 192.70964782 44.9212234 189.61681611 48.87890625 185.09375 C52.24220788 175.00384511 47.83697449 167.01756978 43.375 158.08203125 C38.96835987 149.95894763 33.36425639 143.57910014 26.87890625 137.09375 C26.20988281 136.42472656 25.54085937 135.75570312 24.8515625 135.06640625 C8.27805506 119.6141509 -15.10498641 112.21717836 -37.52734375 112.80859375 C-62.1824012 114.76491896 -84.35760517 124.18413871 -101.37109375 142.46875 Z " fill="#347FFF" transform="translate(339.12109375,40.90625)"/>
</svg>
