<?xml version="1.0" encoding="UTF-8"?>
<svg version="1.1" xmlns="http://www.w3.org/2000/svg" width="512" height="512">
<path d="M0 0 C20.79 0 41.58 0 63 0 C69 17 69 17 69 19 C70.24652344 19.23074219 71.49304688 19.46148438 72.77734375 19.69921875 C102.02159953 25.23496596 133.22074942 34.9898389 156.70703125 53.9765625 C159.80297581 56.37075128 159.80297581 56.37075128 163.0546875 55.515625 C164.02664063 55.01546875 164.99859375 54.5153125 166 54 C167.01320313 53.47921875 168.02640625 52.9584375 169.0703125 52.421875 C171.11517395 51.30269252 173.15683079 50.17763585 175.1953125 49.046875 C178 48 178 48 179.91168213 48.68515015 C182.34802274 50.2191226 184.18716159 51.94757617 186.21777344 53.99072266 C187.03832214 54.81142242 187.85887085 55.63212219 188.70428467 56.47769165 C189.58046448 57.36419403 190.45664429 58.25069641 191.359375 59.1640625 C192.26375305 60.07127045 193.1681311 60.97847839 194.09991455 61.91317749 C196.49796458 64.31884419 198.88994618 66.73045736 201.28070068 69.14337158 C203.72385171 71.60702344 206.17271206 74.06498577 208.62109375 76.5234375 C213.41933788 81.34373573 218.21182732 86.16969843 223 91 C221.25336522 96.4456969 218.84095971 101.1182897 216.046875 106.09765625 C214.74805383 108.88592778 214.74805383 108.88592778 215.5390625 111.4140625 C217.45001932 114.79655827 219.50695085 118.05668542 221.625 121.3125 C226.69117618 129.28344254 231.03807401 137.43141471 235 146 C235.33241699 146.70930664 235.66483398 147.41861328 236.00732422 148.14941406 C243.9339164 165.26235362 249.22378838 183.35056052 252 202 C252.76699219 202.20133545 253.53398437 202.4026709 254.32421875 202.61010742 C260.08090374 204.12123723 265.37885322 205.89206996 271 208 C271 228.79 271 249.58 271 271 C254 277 254 277 252 277 C251.72349609 278.69576172 251.72349609 278.69576172 251.44140625 280.42578125 C246.21004889 310.33233932 234.42625392 338.15523549 218.08203125 363.6484375 C215.92983835 366.82383939 215.92983835 366.82383939 215 370 C215.62812667 371.81627608 215.62812667 371.81627608 216.72265625 373.65234375 C217.09583984 374.34650391 217.46902344 375.04066406 217.85351562 375.75585938 C218.65877097 377.2089615 219.46866667 378.65950188 220.28320312 380.10742188 C220.84104492 381.1505957 220.84104492 381.1505957 221.41015625 382.21484375 C221.76215088 382.84511475 222.11414551 383.47538574 222.47680664 384.12475586 C223 386 223 386 222.28211975 387.85359192 C220.78696726 390.35664 219.07808872 392.16165415 217.00927734 394.21777344 C216.18857758 395.03832214 215.36787781 395.85887085 214.52230835 396.70428467 C213.19255478 398.01855438 213.19255478 398.01855438 211.8359375 399.359375 C210.92872955 400.26375305 210.02152161 401.1681311 209.08682251 402.09991455 C206.68115581 404.49796458 204.26954264 406.88994618 201.85662842 409.28070068 C199.39297656 411.72385171 196.93501423 414.17271206 194.4765625 416.62109375 C189.65626427 421.41933788 184.83030157 426.21182732 180 431 C174.5543031 429.25336522 169.8817103 426.84095971 164.90234375 424.046875 C162.12434447 422.75532036 162.12434447 422.75532036 159.640625 423.5078125 C155.19168237 426.02185996 150.9093698 428.76941008 146.61914062 431.54296875 C145.92626953 431.98511719 145.23339844 432.42726563 144.51953125 432.8828125 C143.89151611 433.28902832 143.26350098 433.69524414 142.61645508 434.11376953 C141 435 141 435 139 435 C139.02094727 435.80518066 139.04189453 436.61036133 139.06347656 437.43994141 C139.57265862 459.95674555 139.22627854 478.45268235 122.8125 495.8125 C110.59263745 507.38219251 96.35372337 512.64486359 79.62304688 512.51757812 C78.4618483 512.5245874 77.30064972 512.53159668 76.10426331 512.53881836 C72.30884074 512.55626129 68.51417865 512.54482374 64.71875 512.53125 C62.05561416 512.53394884 59.39250042 512.53782982 56.72937012 512.54284668 C51.16503841 512.55008878 45.60092025 512.54062659 40.03662109 512.52148438 C33.63749494 512.49972203 27.23887889 512.50677587 20.83976507 512.52879 C15.30894074 512.54704294 9.77826842 512.54945444 4.24742365 512.53903532 C0.96013395 512.53285422 -2.32686861 512.53342484 -5.614151 512.54518127 C-9.28412535 512.55542844 -12.95314311 512.53973056 -16.62304688 512.51757812 C-17.68732407 512.52567505 -18.75160126 512.53377197 -19.84812927 512.54211426 C-35.24705699 512.37136148 -48.69575237 506.33776993 -59.8125 495.8125 C-74.88832866 479.86774749 -76.69345654 462.63039826 -76.4375 441.75 C-76.4272731 440.21965118 -76.4272731 440.21965118 -76.4168396 438.65838623 C-76.23993281 413.12625761 -73.22995192 388.79894442 -67 364 C-68.23727341 363.6410112 -69.47454681 363.2820224 -70.74931335 362.91215515 C-74.64979468 361.61917403 -78.06165139 359.94647223 -81.63117981 357.91560364 C-98.97059528 348.21261949 -113.95164332 346.12460941 -133.60385108 346.47994971 C-137.39939605 346.5342564 -141.19462572 346.51264401 -144.99043274 346.50019836 C-152.13026328 346.48775645 -159.2679584 346.54038931 -166.40731221 346.61836988 C-176.08825835 346.72017184 -185.76919557 346.71747086 -195.45058346 346.72164631 C-210.63505744 346.73086435 -225.81502565 346.87624804 -241 347 C-241 308.72 -241 270.44 -241 231 C-230.11 231 -219.22 231 -208 231 C-208 223.41 -208 215.82 -208 208 C-205.23625 207.01 -202.4725 206.02 -199.625 205 C-198.75568848 204.68675781 -197.88637695 204.37351563 -196.99072266 204.05078125 C-196.3054248 203.80714844 -195.62012695 203.56351563 -194.9140625 203.3125 C-193.8614624 202.93544922 -193.8614624 202.93544922 -192.78759766 202.55078125 C-191 202 -191 202 -189 202 C-188.72349609 200.30423828 -188.72349609 200.30423828 -188.44140625 198.57421875 C-183.21004889 168.66766068 -171.42625392 140.84476451 -155.08203125 115.3515625 C-152.92983835 112.17616061 -152.92983835 112.17616061 -152 109 C-152.62812667 107.18372392 -152.62812667 107.18372392 -153.72265625 105.34765625 C-154.09583984 104.65349609 -154.46902344 103.95933594 -154.85351562 103.24414062 C-155.65877097 101.7910385 -156.46866667 100.34049812 -157.28320312 98.89257812 C-157.65509766 98.19712891 -158.02699219 97.50167969 -158.41015625 96.78515625 C-158.76215088 96.15488525 -159.11414551 95.52461426 -159.47680664 94.87524414 C-160 93 -160 93 -159.28211975 91.14640808 C-157.78696726 88.64336 -156.07808872 86.83834585 -154.00927734 84.78222656 C-153.18857758 83.96167786 -152.36787781 83.14112915 -151.52230835 82.29571533 C-150.63580597 81.41953552 -149.74930359 80.54335571 -148.8359375 79.640625 C-147.92872955 78.73624695 -147.02152161 77.8318689 -146.08682251 76.90008545 C-143.68115581 74.50203542 -141.26954264 72.11005382 -138.85662842 69.71929932 C-136.39297656 67.27614829 -133.93501423 64.82728794 -131.4765625 62.37890625 C-126.65626427 57.58066212 -121.83030157 52.78817268 -117 48 C-111.5543031 49.74663478 -106.8817103 52.15904029 -101.90234375 54.953125 C-99.11407222 56.25194617 -99.11407222 56.25194617 -96.5859375 55.4609375 C-93.20344792 53.54998417 -89.94325679 51.49313133 -86.6875 49.375 C-61.97699083 33.6625402 -34.72175336 24.14509807 -6 19 C-5.81824219 18.29875 -5.63648438 17.5975 -5.44921875 16.875 C-5.19785156 15.92625 -4.94648438 14.9775 -4.6875 14 C-4.44386719 13.071875 -4.20023438 12.14375 -3.94921875 11.1875 C-2.82051835 7.3972962 -1.38858598 3.70289595 0 0 Z M13 17 C11.02 22.61 9.04 28.22 7 34 C2.45243455 36.25301759 0.63840148 36.84515411 -4.125 37.1875 C-6.29012422 37.4898889 -8.45419525 37.79990773 -10.6171875 38.1171875 C-12.23318848 38.32359863 -12.23318848 38.32359863 -13.88183594 38.53417969 C-18.47252015 39.21997874 -22.82486036 40.43393802 -27.25 41.8125 C-28.05622803 42.06177246 -28.86245605 42.31104492 -29.69311523 42.56787109 C-50.32056243 49.138386 -69.10868814 58.07131178 -86.67016602 70.74682617 C-87.42354248 71.28412354 -88.17691895 71.8214209 -88.953125 72.375 C-89.61473633 72.85710937 -90.27634766 73.33921875 -90.95800781 73.8359375 C-93 75 -93 75 -98 76 C-102.95 73.69 -107.9 71.38 -113 69 C-121.58 77.58 -130.16 86.16 -139 95 C-136.69 99.95 -134.38 104.9 -132 110 C-133.0047712 115.023856 -133.99052207 116.75163978 -136.9375 120.75 C-152.41003859 142.41842793 -165.24881416 167.85559783 -169.16796875 194.40625 C-172.06394284 213.16822234 -172.06394284 213.16822234 -175.921875 216.81835938 C-180.68407112 219.56994297 -185.57472436 220.49251319 -191 221 C-191 224.3 -191 227.6 -191 231 C-180.44 231 -169.88 231 -159 231 C-157.99654707 227.9896412 -157.71711405 225.24623557 -157.45605469 222.09936523 C-154.09211271 182.7245041 -138.16065254 144.67275392 -112 115 C-111.13761719 114.01644531 -110.27523437 113.03289062 -109.38671875 112.01953125 C-76.71005032 75.28379424 -29.89765472 53.36687709 19 50 C71.31464 47.23359788 121.13339062 64.55358766 160.09155273 99.48413086 C196.92368782 133.1497759 218.57498819 180.50303438 221.16845703 230.22998047 C222.44092598 265.84313849 214.83889748 299.62142581 198 331 C197.09507812 332.73636719 197.09507812 332.73636719 196.171875 334.5078125 C188.01542166 349.55269912 177.03942299 362.89436213 165 375 C164.25097412 375.75506836 164.25097412 375.75506836 163.48681641 376.52539062 C154.79193527 385.17309239 145.14464478 392.14780879 135 399 C135.66 404.61 136.32 410.22 137 416 C143.32442408 412.68226934 148.78332044 408.99136853 154.32421875 404.4765625 C157 403 157 403 163 404 C167.29 405.98 171.58 407.96 176 410 C184.58 401.42 193.16 392.84 202 384 C199.69 379.05 197.38 374.1 195 369 C196.0047712 363.976144 196.99052207 362.24836022 199.9375 358.25 C217.07899595 334.2442903 227.70357697 307.87454749 233.921875 279.15625 C234.22254883 277.87814453 234.22254883 277.87814453 234.52929688 276.57421875 C235.08221754 273.99872931 235.08221754 273.99872931 234.98632812 271.33203125 C235.078125 268.71875 235.078125 268.71875 237 264 C242.61 262.02 248.22 260.04 254 258 C254 245.79 254 233.58 254 221 C248.39 219.02 242.78 217.04 237 215 C234.64208393 209.84059949 233.84954816 207.19838727 233.3125 201.8125 C232.91562937 199.27497275 232.5119619 196.73849936 232.1015625 194.203125 C231.92270508 192.96755859 231.74384766 191.73199219 231.55957031 190.45898438 C230.81407809 185.85072354 229.64251392 181.49188892 228.1875 177.0625 C227.94467285 176.32193359 227.7018457 175.58136719 227.45166016 174.81835938 C220.77045296 155.23153597 211.73644035 137.02972631 199.54150391 120.31323242 C199.09468262 119.69037354 198.64786133 119.06751465 198.1875 118.42578125 C197.78917969 117.88348877 197.39085937 117.34119629 196.98046875 116.7824707 C196 115 196 115 195 110 C198.465 102.575 198.465 102.575 202 95 C193.42 86.42 184.84 77.84 176 69 C171.05 71.31 166.1 73.62 161 76 C155.976144 74.9952288 154.24836022 74.00947793 150.25 71.0625 C126.2442903 53.92100405 99.87454749 43.29642303 71.15625 37.078125 C70.30417969 36.87767578 69.45210938 36.67722656 68.57421875 36.47070312 C65.99872931 35.91778246 65.99872931 35.91778246 63.33203125 36.01367188 C60.71875 35.921875 60.71875 35.921875 56 34 C54.02 28.39 52.04 22.78 50 17 C37.79 17 25.58 17 13 17 Z M24 67 C23.8922606 71.41731521 23.81279371 75.83201394 23.75 80.25 C23.71648437 81.50425781 23.68296875 82.75851563 23.6484375 84.05078125 C23.63554687 85.25605469 23.62265625 86.46132812 23.609375 87.703125 C23.58842773 88.81333008 23.56748047 89.92353516 23.54589844 91.06738281 C24.10219009 94.65995017 25.1919166 95.77524459 28 98 C30.69061839 99.21511798 31.75917853 99.06880614 34.625 98.25 C37.28364637 97.09230617 37.28364637 97.09230617 39 94 C39.27670494 91.09069658 39.27670494 91.09069658 39.1953125 87.80078125 C39.18886719 86.59228516 39.18242187 85.38378906 39.17578125 84.13867188 C39.15902344 82.87603516 39.14226562 81.61339844 39.125 80.3125 C39.11597656 79.03826172 39.10695313 77.76402344 39.09765625 76.45117188 C39.07405722 73.30070146 39.03818579 70.15032738 39 67 C34.05 67 29.1 67 24 67 Z M-4.3984375 69.8828125 C-5.19926758 70.07721924 -6.00009766 70.27162598 -6.82519531 70.47192383 C-8.08734863 70.79519653 -8.08734863 70.79519653 -9.375 71.125 C-10.25768555 71.35018311 -11.14037109 71.57536621 -12.04980469 71.80737305 C-33.07457446 77.33651598 -53.5828481 86.93713607 -71 100 C-67.81242068 103.82509519 -64.59651184 107.43064828 -61 110.875 C-54.13178021 117.67743225 -49.74917495 124.50715043 -48.625 134.25 C-49.3442117 141.44211703 -51.29615147 147.90846861 -56.625 153 C-63.25945968 158.11099116 -70.15683689 159.52605588 -78.3828125 158.71484375 C-86.82170967 156.40989124 -92.04767671 151.47053889 -98 145.25 C-99.16208984 144.06083984 -99.16208984 144.06083984 -100.34765625 142.84765625 C-102.24127097 140.90728561 -104.12484287 138.9581852 -106 137 C-110.21855184 138.40618395 -111.48160883 141.42869576 -113.6875 145.0625 C-114.12739258 145.77913818 -114.56728516 146.49577637 -115.02050781 147.23413086 C-127.34072034 167.61860397 -135.99399606 189.51467168 -139.8125 213.0625 C-139.9364917 213.82336914 -140.0604834 214.58423828 -140.18823242 215.36816406 C-140.96894281 220.62199404 -141.09999721 225.68962159 -141 231 C-135.89971804 231.20117929 -130.80185287 231.34448027 -125.69848633 231.43945312 C-123.97118819 231.47912803 -122.24414822 231.53328995 -120.51782227 231.60351562 C-107.93300467 232.10177915 -98.9224333 230.2543365 -87.91651917 224.06721497 C-85.88067224 222.93355226 -83.82149333 221.86398981 -81.74169922 220.81323242 C-81.11101532 220.49432541 -80.48033142 220.1754184 -79.83053589 219.84684753 C-68.36121621 214.5408794 -55.38918472 214.2693301 -43 214 C-43.49371094 213.09378906 -43.98742187 212.18757812 -44.49609375 211.25390625 C-49.57758977 201.6983272 -52.37112124 194.33830037 -49.859375 183.42578125 C-47.25308855 176.06894541 -41.62231595 171.20488797 -35.125 167.25 C-28.05674174 164.4226967 -18.28228596 164.76014833 -11.25 167.5 C-10.1775 167.995 -9.105 168.49 -8 169 C-7.01 169 -6.02 169 -5 169 C-3.62446662 167.46247173 -3.62446662 167.46247173 -2.375 165.4375 C4.61584777 155.73276047 14.33876958 150.94048732 26 149 C38.81899492 147.94693881 49.89013939 150.9692473 60 159 C63.091222 162.03103892 66.05237707 165.10475414 68 169 C70.5687349 168.55964544 72.79464993 168.09600301 75.1640625 166.98828125 C82.73033767 164.35154899 93.37358553 164.68866982 100.6875 168 C107.76660848 172.29803015 111.56439778 178.49770147 113.58984375 186.4296875 C114.93160717 194.8380716 112.66963713 201.9955443 108 209 C104.1024766 213.6676526 99.88150633 218.03297065 95.6796875 222.42578125 C89.77833359 229.07841453 88.36280043 235.33889643 87 244 C86.67 244.99 86.34 245.98 86 247 C86.97839844 247.03738281 87.95679688 247.07476562 88.96484375 247.11328125 C106.87048103 248.01120406 106.87048103 248.01120406 114 254 C114.66 254 115.32 254 116 254 C123.46610218 268.69678672 123.46610218 268.69678672 122 277 C121.08881657 279.65892751 120.05736179 282.18881365 118.875 284.73828125 C117.68175913 287.82259581 117.68175913 290.17740419 118.875 293.26171875 C119.24625 294.06222656 119.6175 294.86273438 120 295.6875 C122.95555115 302.89693371 122.95555115 308.10306629 120 315.3125 C119.62875 316.11300781 119.2575 316.91351563 118.875 317.73828125 C117.68175913 320.82259581 117.68175913 323.17740419 118.875 326.26171875 C119.24625 327.06222656 119.6175 327.86273438 120 328.6875 C122.30670083 334.21380093 123.09929968 339.42727604 121.3125 345.234375 C120.84596826 349.36318093 122.27811741 352.58757867 123.6875 356.4375 C124.24858038 358.03689025 124.80714494 359.63716514 125.36328125 361.23828125 C125.7802124 362.43251709 125.7802124 362.43251709 126.20556641 363.65087891 C128.02591535 369.03360708 129.50232638 374.52027654 131 380 C160.52389371 366.22657637 183.19600886 329.50194045 194 300 C200.15196117 282.87651361 200.15196117 282.87651361 202 265 C201.28980713 264.98541748 200.57961426 264.97083496 199.84790039 264.95581055 C196.58559222 264.88068375 193.32423602 264.78423867 190.0625 264.6875 C188.38704102 264.65366211 188.38704102 264.65366211 186.67773438 264.61914062 C177.12099275 264.31085864 168.12333677 262.90131069 161 256 C155.9195339 249.12824494 155.36696268 242.29854376 156 234 C157.23423053 228.31476487 159.82292971 224.0842465 164 220 C169.89672087 216.3233593 175.15540102 214.9211382 182.078125 214.68359375 C183.81835938 214.62075195 183.81835938 214.62075195 185.59375 214.55664062 C186.8003125 214.51732422 188.006875 214.47800781 189.25 214.4375 C190.47203125 214.39431641 191.6940625 214.35113281 192.953125 214.30664062 C195.9686392 214.20062645 198.98423448 214.09856064 202 214 C201.54094523 206.77673891 200.53998406 200.06892187 198.5 193.125 C198.24009277 192.23224365 197.98018555 191.3394873 197.71240234 190.41967773 C191.86407964 171.10940134 182.96997143 153.23427375 171 137 C167.7947492 138.40282157 165.74994355 140.05311029 163.35546875 142.58984375 C162.67806641 143.29173828 162.00066406 143.99363281 161.30273438 144.71679688 C159.90009775 146.18937106 158.50160349 147.66590277 157.10742188 149.14648438 C150.9470204 155.50504445 145.5740778 158.42919943 136.61328125 159.0546875 C128.95242232 158.89437057 123.09618653 156.16969664 117.625 150.875 C112.74164056 145.24035449 111.8572042 138.23158755 112 131 C113.10757695 123.68292247 116.91147589 119.11502684 122 114 C122.49371094 113.49936035 122.98742187 112.9987207 123.49609375 112.48291016 C126.97081684 108.9613158 130.47583857 105.47208022 134 102 C132.59381605 97.78144816 129.57130424 96.51839117 125.9375 94.3125 C125.22086182 93.87260742 124.50422363 93.43271484 123.76586914 92.97949219 C108.99088755 84.04961147 93.35550149 76.95405508 76.75 72.1875 C76.04182129 71.98036377 75.33364258 71.77322754 74.60400391 71.55981445 C68.78825552 69.97023015 63.00524904 69.40589224 57 69 C56.98541748 69.74048584 56.97083496 70.48097168 56.95581055 71.24389648 C56.88072778 74.64225413 56.78426719 78.0396934 56.6875 81.4375 C56.65366211 83.18450195 56.65366211 83.18450195 56.61914062 84.96679688 C56.31455267 94.79668099 55.22933132 102.93497166 48 110 C40.94491856 114.94648406 34.43209007 115.65401253 26 115 C20.07826405 113.64418167 15.01032566 111.08667566 11.62109375 105.8828125 C8.26621689 100.05239972 6.91515411 95.67020555 6.68359375 88.921875 C6.62075195 87.18164062 6.62075195 87.18164062 6.55664062 85.40625 C6.51732422 84.1996875 6.47800781 82.993125 6.4375 81.75 C6.39431641 80.52796875 6.35113281 79.3059375 6.30664062 78.046875 C6.20062645 75.0313608 6.09856064 72.01576552 6 69 C2.38029442 68.92671085 -0.87910004 69.02732297 -4.3984375 69.8828125 Z M-91.25 116.75 C-91.97703125 117.44609375 -92.7040625 118.1421875 -93.453125 118.859375 C-95.23058399 120.81915027 -95.23058399 120.81915027 -94.80615234 122.89282227 C-93.18780312 127.12297738 -89.52176752 130.03231866 -86.375 133.1875 C-85.67503906 133.92419922 -84.97507813 134.66089844 -84.25390625 135.41992188 C-80.91471059 138.7869958 -78.78748234 140.7714537 -74.1640625 142.11328125 C-70.8385172 142.27120427 -70.8385172 142.27120427 -68 140 C-65.94176057 136.91264085 -65.53742306 135.62189141 -66.18457031 132.01513672 C-68.00589302 127.51417935 -71.924082 124.35271349 -75.375 121.0625 C-76.15617187 120.28326172 -76.93734375 119.50402344 -77.7421875 118.70117188 C-84.1652746 112.23020604 -84.1652746 112.23020604 -91.25 116.75 Z M138.375 121.0625 C137.58609375 121.81466797 136.7971875 122.56683594 135.984375 123.34179688 C131.2170156 127.89959584 131.2170156 127.89959584 128.8515625 133.87109375 C128.73888347 137.1658609 128.73888347 137.1658609 131 140 C134.08861768 142.05907846 135.37364417 142.45931442 138.98046875 141.81103516 C143.49467429 139.99814942 146.68246956 136.12654135 150 132.6875 C151.18142578 131.52831055 151.18142578 131.52831055 152.38671875 130.34570312 C155.40535583 127.34641085 155.40535583 127.34641085 158 124 C157.67632888 120.43594884 156.12959199 118.7228883 153.625 116.25 C153.01914062 115.63640625 152.41328125 115.0228125 151.7890625 114.390625 C146.44703849 110.2383094 141.97030339 117.47609588 138.375 121.0625 Z M11.125 175.0625 C7.38613126 180.31282631 4 187.43206633 4 194 C2.98015015 193.44687134 2.98015015 193.44687134 1.93969727 192.88256836 C-1.17406633 191.21072945 -4.30508603 189.57410858 -7.4375 187.9375 C-9.04141602 187.06641602 -9.04141602 187.06641602 -10.67773438 186.17773438 C-16.40873522 183.21584097 -20.69444395 181.22255632 -27.17382812 182.31005859 C-30.79190477 183.67699504 -32.05609157 185.67654366 -34 189 C-34.53419724 193.8473453 -33.58101209 196.38041072 -30.875 200.375 C-30.29492188 201.24898437 -29.71484375 202.12296875 -29.1171875 203.0234375 C-28.41851562 204.00570312 -27.71984375 204.98796875 -27 206 C-26.61227039 206.65979764 -26.22454079 207.31959528 -25.8250618 207.99938679 C-23.11791818 212.27566134 -23.11791818 212.27566134 -18.86980438 214.77368736 C-16.28997067 215.10222038 -13.80688319 215.1806673 -11.20605469 215.17456055 C-9.7511689 215.21744705 -9.7511689 215.21744705 -8.26689148 215.26119995 C-5.06792696 215.34382268 -1.87180665 215.36781361 1.328125 215.38671875 C3.56006862 215.42219522 5.79198292 215.45956196 8.02386475 215.49873352 C12.70110098 215.57098962 17.37744386 215.61292686 22.05517578 215.63500977 C28.03354598 215.66668917 34.00663358 215.78450714 39.98326492 215.92679119 C44.59355095 216.02499795 49.20329591 216.07135312 53.81447601 216.10297585 C56.01699777 216.12531985 58.21941777 216.1648793 60.4213028 216.2223568 C72.62572154 217.03566206 72.62572154 217.03566206 83.51037598 212.62295532 C86.04501719 209.86951867 88.02625659 207.16998579 90 204 C91.17066565 202.56939082 92.35463456 201.14934334 93.5625 199.75 C96.08706095 196.24286845 97.08316957 193.40798732 97 189 C95.78588734 186.12447001 94.73889186 184.5541689 92.25 182.6875 C83.87640217 180.12890066 77.89494968 184.13577726 70.5625 188 C69.44939453 188.57234375 68.33628906 189.1446875 67.18945312 189.734375 C64.45285948 191.14377945 61.72368198 192.56584746 59 194 C58.69908447 192.86655151 58.69908447 192.86655151 58.39208984 191.71020508 C58.12605957 190.71915771 57.8600293 189.72811035 57.5859375 188.70703125 C57.19220947 187.23327026 57.19220947 187.23327026 56.79052734 185.72973633 C54.5357182 177.94375083 50.50618726 172.1561126 43.5 168.125 C31.86307833 162.7914109 19.42009477 165.39660567 11.125 175.0625 Z M-92 245 C-92 274.04 -92 303.08 -92 333 C-77.70104081 341.67021371 -77.70104081 341.67021371 -61 346 C-60.71390869 345.24605957 -60.42781738 344.49211914 -60.13305664 343.71533203 C-54.85645048 329.87543351 -49.51092842 316.26629898 -42.58203125 303.1484375 C-40.85033784 300.28941397 -40.85033784 300.28941397 -41 298 C-47.27 298 -53.54 298 -60 298 C-60 292.06 -60 286.12 -60 280 C-57.87820312 280.05800781 -55.75640625 280.11601562 -53.5703125 280.17578125 C-51.48180872 280.21493777 -49.39334809 280.24520394 -47.3046875 280.2746582 C-45.86927552 280.29957855 -44.43398743 280.33352875 -42.99902344 280.37719727 C-33.14673404 280.66919329 -24.84522729 280.17819079 -17.10449219 273.32080078 C-12.33971816 268.46700786 -10.12979427 262.65644872 -9.89013672 255.9050293 C-9.90318848 254.84711182 -9.91624023 253.78919434 -9.9296875 252.69921875 C-9.93983887 251.62889404 -9.94999023 250.55856934 -9.96044922 249.45581055 C-9.97350098 248.64539307 -9.98655273 247.83497559 -10 247 C-9.12383026 247.00888245 -8.24766052 247.01776489 -7.34494019 247.0269165 C0.92360967 247.10715922 9.19202822 247.16801356 17.46087837 247.20724869 C21.71171849 247.22809828 25.9622361 247.25636734 30.21289062 247.30175781 C34.31723055 247.34531017 38.42126083 247.36915688 42.52581406 247.37950897 C44.08949532 247.38688357 45.65316017 247.40128466 47.21670914 247.42292023 C49.41193126 247.45208062 51.60588401 247.45595097 53.80126953 247.45410156 C55.04925323 247.46298401 56.29723694 247.47186646 57.58303833 247.48101807 C62.72192933 246.75759777 65.75871894 244.2748292 69.3125 240.625 C71.20931459 237.67439952 71.52189478 235.43667712 72 232 C54.60547296 231.90632784 37.21102526 231.83590918 19.81630325 231.79275131 C11.73861481 231.77217477 3.66108359 231.74414878 -4.41650391 231.69824219 C-11.46150012 231.6582233 -18.50638239 231.63253156 -25.55148911 231.62364602 C-29.27773292 231.61845656 -33.00365093 231.60636366 -36.72978973 231.57707977 C-40.90170908 231.54456207 -45.07307132 231.54405016 -49.24511719 231.54589844 C-50.46432358 231.53151733 -51.68352997 231.51713623 -52.93968201 231.50231934 C-68.39609467 231.57606892 -77.86794507 237.51832386 -92 245 Z M173 236 C171.78488202 238.69061839 171.93119386 239.75917853 172.75 242.625 C173.90769383 245.28364637 173.90769383 245.28364637 177 247 C179.90930342 247.27670494 179.90930342 247.27670494 183.19921875 247.1953125 C185.01196289 247.18564453 185.01196289 247.18564453 186.86132812 247.17578125 C188.12396484 247.15902344 189.38660156 247.14226562 190.6875 247.125 C192.59885742 247.11146484 192.59885742 247.11146484 194.54882812 247.09765625 C197.69929854 247.07405722 200.84967262 247.03818579 204 247 C204 242.05 204 237.1 204 232 C199.58268479 231.8922606 195.16798606 231.81279371 190.75 231.75 C189.49574219 231.71648437 188.24148438 231.68296875 186.94921875 231.6484375 C185.74394531 231.63554687 184.53867187 231.62265625 183.296875 231.609375 C182.18666992 231.58842773 181.07646484 231.56748047 179.93261719 231.54589844 C176.34004983 232.10219009 175.22475541 233.1919166 173 236 Z M-224 248 C-224 275.06 -224 302.12 -224 330 C-207.83 330 -191.66 330 -175 330 C-175.1055178 317.98853806 -175.1055178 317.98853806 -175.33276367 305.97924805 C-175.35651605 298.45043089 -175.33379842 292.44695073 -169.98176575 286.72163391 C-167.76565305 284.65347504 -165.45318161 282.77839835 -163 281 C-163.4122583 280.51104248 -163.8245166 280.02208496 -164.24926758 279.51831055 C-165.23258464 278.35205078 -166.21590169 277.18579102 -167.19921875 276.01953125 C-169.36743345 273.58793256 -171.69632607 271.30367393 -174 269 C-174.495 258.605 -174.495 258.605 -175 248 C-191.17 248 -207.34 248 -224 248 Z M-158 248 C-159.03194217 259.70519808 -159.03194217 259.70519808 -156.25585938 264.2199707 C-155.06186523 265.31184692 -155.06186523 265.31184692 -153.84375 266.42578125 C-152.98652344 267.24111328 -152.12929687 268.05644531 -151.24609375 268.89648438 C-150.33988281 269.69376953 -149.43367188 270.49105469 -148.5 271.3125 C-147.59378906 272.16005859 -146.68757813 273.00761719 -145.75390625 273.88085938 C-143.52923501 275.95331627 -141.28040631 277.9893226 -139 280 C-140.41019573 283.37325748 -141.96982533 284.96397606 -144.9140625 287.08984375 C-154.0641188 294.30837112 -154.0641188 294.30837112 -158.79638672 304.63378906 C-159.50901976 313.27325916 -158.69118577 321.25853292 -158 330 C-141.83 330 -125.66 330 -109 330 C-109 302.94 -109 275.88 -109 248 C-125.17 248 -141.34 248 -158 248 Z M6 265 C5.46375 266.464375 4.9275 267.92875 4.375 269.4375 C0.55861608 278.8850518 -5.27273671 288.13321852 -14.98828125 292.2734375 C-18.74961392 294.42973975 -20.254903 297.01762576 -22.1875 300.75 C-22.56132812 301.44681885 -22.93515625 302.1436377 -23.3203125 302.86157227 C-24.57270536 305.22854344 -25.7891995 307.61150136 -27 310 C-27.66056396 311.28656494 -27.66056396 311.28656494 -28.33447266 312.59912109 C-49.23625398 353.62193416 -58.96929857 397.68176827 -59.3125 443.625 C-59.34150391 444.92695313 -59.37050781 446.22890625 -59.40039062 447.5703125 C-59.48902081 461.2057252 -56.50881461 473.19863417 -46.89453125 483.1875 C-36.80621607 492.63335793 -26.64902279 495.30854294 -13.06103516 495.2746582 C-11.45940773 495.2823246 -11.45940773 495.2823246 -9.82542419 495.29014587 C-6.31324582 495.30398918 -2.80126484 495.30308901 0.7109375 495.30078125 C3.16419548 495.3046711 5.61745279 495.30900636 8.07070923 495.31376648 C13.20666693 495.32121742 18.34255587 495.32094557 23.47851562 495.31567383 C30.04424505 495.30988117 36.6096922 495.3268111 43.17537498 495.3500185 C48.24044426 495.36478504 53.305446 495.36562354 58.37053299 495.36250877 C60.79051904 495.36302053 63.21050902 495.36823071 65.63047409 495.37832069 C69.02124877 495.39072399 72.41147944 495.38386963 75.80224609 495.37231445 C76.79165695 495.37995819 77.78106781 495.38760193 78.80046082 495.39547729 C91.07851462 495.30348187 101.5994051 491.12059101 110.75 482.875 C119.57105785 473.47004234 122.38913299 461.29054061 122.3125 448.8125 C122.30404053 447.3267749 122.30404053 447.3267749 122.29541016 445.81103516 C121.85438671 417.56370194 117.49266495 388.67186832 108 362 C107.1644458 362.16081055 106.3288916 362.32162109 105.46801758 362.48730469 C99.65465308 363.34672499 93.80755665 363.22488618 87.94262695 363.24023438 C85.70420994 363.24992764 83.46671735 363.28099337 81.22851562 363.3125 C71.1419461 363.3880672 62.15017146 363.02557126 54.5078125 355.703125 C48.73516225 349.18272213 48.59840152 342.90341646 48.76171875 334.48828125 C49 331 49 331 49.72265625 328.27734375 C50.26444746 325.92805877 50.26444746 325.92805877 48.671875 324.078125 C47.72054687 323.17320312 47.72054687 323.17320312 46.75 322.25 C41.9147112 317.12517295 40.21525911 312.22888663 39.75 305.25 C39.96866252 302.40738725 40.41320749 299.78253221 41 297 C40.34773438 296.67128906 39.69546875 296.34257812 39.0234375 296.00390625 C31.52303184 291.92182706 26.73742113 287.2122634 24 279 C23.86409553 274.33032246 23.95713193 269.67262015 24 265 C18.06 265 12.12 265 6 265 Z M41 269 C39.91975342 271.40110217 39.91975342 271.40110217 40 274 C41.75113525 277.71261227 41.75113525 277.71261227 45 280 C46.76556079 280.11106292 48.53523821 280.15920218 50.30419922 280.17700195 C51.4122995 280.18983719 52.52039978 280.20267242 53.66207886 280.21589661 C55.46517014 280.22697701 55.46517014 280.22697701 57.3046875 280.23828125 C58.53534943 280.246353 59.76601135 280.25442474 61.03396606 280.26274109 C63.64160753 280.27659032 66.24926719 280.2873087 68.85693359 280.29516602 C71.53229481 280.30403561 74.20713822 280.32492948 76.88232422 280.35668945 C80.73160586 280.3991954 84.58020082 280.41551205 88.4296875 280.42578125 C89.62769989 280.44328934 90.82571228 280.46079742 92.06002808 280.47883606 C93.17443268 280.47591049 94.28883728 280.47298492 95.43701172 280.4699707 C96.90689041 280.47877007 96.90689041 280.47877007 98.40646362 280.48774719 C101.76245119 279.85661145 102.94027598 278.67855222 105 276 C105.66666667 272.5 105.66666667 272.5 105 269 C102.94579287 266.33539224 101.75503677 265.14864251 98.41992188 264.49206543 C97.44603516 264.48888306 96.47214844 264.48570068 95.46875 264.48242188 C93.80682617 264.46350891 93.80682617 264.46350891 92.11132812 264.44421387 C90.91958984 264.45231079 89.72785156 264.46040771 88.5 264.46875 C87.27216797 264.4649231 86.04433594 264.46109619 84.77929688 264.45715332 C82.18358541 264.45443158 79.58784664 264.46181089 76.9921875 264.47851562 C73.01500401 264.49991925 69.03962718 264.47872037 65.0625 264.453125 C62.54166267 264.45576823 60.02082647 264.46089309 57.5 264.46875 C56.30826172 264.46065308 55.11652344 264.45255615 53.88867188 264.44421387 C52.78072266 264.45682251 51.67277344 264.46943115 50.53125 264.48242188 C49.55736328 264.48560425 48.58347656 264.48878662 47.58007812 264.49206543 C44.26903853 265.14390285 43.09359882 266.40881338 41 269 Z M57 303 C57 306.52108668 57.11160619 308.86177408 59.31568909 311.6856842 C62.3312442 314.03880778 66.22629046 313.44633589 69.90234375 313.43359375 C71.21350914 313.44145653 71.21350914 313.44145653 72.55116272 313.44947815 C74.39957619 313.45590058 76.24803052 313.45455848 78.09643555 313.44604492 C80.92375584 313.43754134 83.74905161 313.46628148 86.57617188 313.49804688 C88.37239523 313.49965915 90.16862216 313.49908085 91.96484375 313.49609375 C93.23218605 313.51294472 93.23218605 313.51294472 94.52513123 313.53013611 C98.34682598 313.48480341 100.3599049 313.45858758 103.52954102 311.18774414 C105.710865 307.94237734 105.61280016 305.8129788 105 302 C102.23703734 298.97784062 100.03274549 297.76420816 96.0234375 297.46655273 C94.47427003 297.43359016 92.92448755 297.42386203 91.375 297.43359375 C90.5504834 297.42739517 89.7259668 297.42119659 88.87646484 297.41481018 C87.13835833 297.4077264 85.40018376 297.41086087 83.66210938 297.42358398 C81.00784164 297.43745901 78.3570957 297.403352 75.703125 297.36523438 C74.01041581 297.36428317 72.31770222 297.36614209 70.625 297.37109375 C69.83528809 297.35783554 69.04557617 297.34457733 68.23193359 297.33091736 C62.86519449 297.4212901 60.32141605 298.44835328 57 303 Z M65 336 C64.74588432 339.63825863 64.74588432 339.63825863 66 343 C68.38933303 345.47287364 69.79337282 345.97420278 73.23632812 346.40405273 C75.11481445 346.41867554 75.11481445 346.41867554 77.03125 346.43359375 C77.70418091 346.4388356 78.37711182 346.44407745 79.07043457 346.44947815 C80.48916243 346.4558841 81.9079435 346.45457977 83.32666016 346.44604492 C85.49347647 346.43752565 87.65766213 346.46632317 89.82421875 346.49804688 C91.20572838 346.49965892 92.58724266 346.4990813 93.96875 346.49609375 C95.22107422 346.49794678 96.47339844 346.4997998 97.76367188 346.50170898 C101.05999931 346.25167285 101.05999931 346.25167285 103.40429688 344.18774414 C105.27654841 341.96825479 105.27654841 341.96825479 105.5625 338.5 C105.32990221 334.9261676 105.32990221 334.9261676 102.89453125 332.81665039 C97.96147356 329.72059082 92.76284101 330.37039225 87.08007812 330.42358398 C85.00488329 330.43746733 82.9341905 330.40333821 80.859375 330.36523438 C79.54453125 330.36716797 78.2296875 330.36910156 76.875 330.37109375 C75.67617188 330.37036865 74.47734375 330.36964355 73.2421875 330.36889648 C69.07670802 331.17972212 67.56468373 332.67732182 65 336 Z " fill="#4E75E7" transform="translate(241,0)"/>
<path d="M0 0 C5.61 0 11.22 0 17 0 C17 5.28 17 10.56 17 16 C18.464375 16.20625 19.92875 16.4125 21.4375 16.625 C28.08510735 17.99030179 33.38485209 20.67957354 37.63671875 26.078125 C40.82899041 31.31015763 41.71054122 35.92136563 42 42 C36.06 42 30.12 42 24 42 C23.34 40.35 22.68 38.7 22 37 C19.02074284 34.02074284 16.27397847 34.70757616 12.19921875 34.67773438 C11.18472656 34.68095703 10.17023438 34.68417969 9.125 34.6875 C8.11824219 34.67138672 7.11148438 34.65527344 6.07421875 34.63867188 C5.10355469 34.63802734 4.13289063 34.63738281 3.1328125 34.63671875 C2.24480957 34.63373779 1.35680664 34.63075684 0.44189453 34.62768555 C-2.51782158 35.078952 -3.88487047 35.897882 -6 38 C-6.63412714 42.61320544 -6.63412714 42.61320544 -4.76977539 46.69335938 C-2.47607011 48.38682201 -1.08130865 48.38238592 1.75390625 48.40625 C2.69169922 48.42816406 3.62949219 48.45007813 4.59570312 48.47265625 C5.57474609 48.48167969 6.55378906 48.49070312 7.5625 48.5 C17.47059909 48.59391563 27.10753524 49.39235509 35 56 C40.67473877 62.48089943 42.44341923 68.69156511 42.24609375 77.2578125 C41.59348524 84.52973585 38.44358593 90.15852628 33 95 C27.90471419 98.48125117 23.09106998 99.56492357 17 100 C17 105.28 17 110.56 17 116 C11.39 116 5.78 116 0 116 C0 110.72 0 105.44 0 100 C-1.155 99.9175 -2.31 99.835 -3.5 99.75 C-10.81075263 98.79417722 -16.18952554 95.72392117 -20.74609375 89.92578125 C-24.25386276 84.53846 -25 80.4730126 -25 74 C-19.06 74 -13.12 74 -7 74 C-6.34 75.98 -5.68 77.96 -5 80 C-1.00442575 81.99778712 4.04451995 81.22876505 8.4375 81.25 C9.50033203 81.270625 10.56316406 81.29125 11.65820312 81.3125 C13.18670898 81.32023437 13.18670898 81.32023437 14.74609375 81.328125 C16.14879517 81.34214355 16.14879517 81.34214355 17.57983398 81.35644531 C20.03598203 81.18486793 20.03598203 81.18486793 21.80102539 79.69824219 C23.82793498 76.82730284 23.42225464 74.37803709 23 71 C20.09218957 68.11753992 17.91640196 67.62595717 13.89453125 67.59375 C12.41823242 67.56087891 12.41823242 67.56087891 10.91210938 67.52734375 C9.88923828 67.51832031 8.86636719 67.50929688 7.8125 67.5 C-2.20513329 67.40992494 -10.88154114 66.78189203 -18.49609375 59.6796875 C-24.06905747 53.45533841 -25.36805209 47.01356447 -25.28125 38.88671875 C-24.71631847 33.08832432 -22.3994757 28.7104703 -18.75 24.25 C-12.63202295 19.24438241 -8.00068159 16.42860794 0 16 C0 10.72 0 5.44 0 0 Z " fill="#8446F7" transform="translate(264,363)"/>
</svg>
