<?xml version="1.0" encoding="UTF-8"?>
<svg version="1.1" xmlns="http://www.w3.org/2000/svg" width="512" height="512">
<path d="M0 0 C1.85010234 1.21962054 3.69908038 2.44094845 5.546875 3.6640625 C11.94005375 7.60271727 18.69470871 9.36347144 26.171875 8.28125 C33.49707116 6.44995096 39.30162723 3.03236571 45.546875 -1.1015625 C53.37961141 -5.92708761 61.53992704 -6.88704926 70.48803711 -4.89599609 C71.97800517 -4.52281568 73.46502807 -4.13772063 74.94921875 -3.7421875 C75.75943985 -3.53445709 76.56966095 -3.32672668 77.4044342 -3.11270142 C79.11251884 -2.67227106 80.81925542 -2.22658211 82.5246582 -1.77587891 C85.06860494 -1.10450957 87.6166602 -0.45127066 90.16601562 0.19921875 C98.51114022 2.35345624 106.76938168 4.69533498 114.953125 7.40234375 C116.02958534 7.75705246 116.02958534 7.75705246 117.12779236 8.118927 C132.47108155 13.32192138 145.63381904 20.4304604 153.171875 35.28125 C155.69377874 41.48402059 156.63609583 47.63758831 157.171875 54.28125 C158.285625 53.78625 158.285625 53.78625 159.421875 53.28125 C168.58437052 50.83791786 176.83644512 51.83568739 185.171875 56.28125 C189.39824585 59.03330544 192.40708336 62.73308438 195.62109375 66.57421875 C197.41756056 68.55168977 198.44076591 69.22169181 201.10791016 69.43896484 C202.27265869 69.46531006 202.27265869 69.46531006 203.4609375 69.4921875 C204.32074219 69.52054687 205.18054688 69.54890625 206.06640625 69.578125 C207.86309124 69.6295323 209.65999067 69.67399393 211.45703125 69.7109375 C219.06185416 69.98213475 225.8455469 71.34365242 231.72265625 76.625 C238.85424513 84.7753873 240.40376944 91.79250628 239.95703125 102.26171875 C239.85715828 107.0828595 240.56724566 110.22178266 243.171875 114.28125 C244.99333303 116.14729265 244.99333303 116.14729265 247.046875 117.65625 C253.65823016 123.17381478 257.35737398 129.70258791 258.42578125 138.33203125 C258.83998998 145.85459627 256.5639771 153.64289569 251.859375 159.59375 C249.27651041 162.17661459 246.62082636 164.4744025 243.72265625 166.69140625 C240.66558697 169.8254798 240.18667184 172.67071951 240.08203125 176.98828125 C240.12811728 178.356937 240.17906698 179.72543589 240.234375 181.09375 C240.40906192 191.14845705 237.9612687 197.74926636 231.171875 205.28125 C229.686875 206.27125 229.686875 206.27125 228.171875 207.28125 C230.7905549 216.35934034 235.06387185 224.59118623 239.234375 233.03125 C240.33660963 235.27238804 241.43721041 237.51430982 242.53599548 239.75714111 C243.21595257 241.14397466 243.89809474 242.52973974 244.58277893 243.91424561 C249.88152859 254.68687186 249.88152859 254.68687186 248.171875 261.28125 C245.93374597 263.54848718 244.77822894 264.2639824 241.56567383 264.35546875 C240.59654053 264.22785156 239.62740723 264.10023438 238.62890625 263.96875 C227.72750633 262.26826864 227.72750633 262.26826864 217.20263672 264.20361328 C213.90128279 266.92168155 212.06445825 270.52159002 210.171875 274.28125 C209.23226076 275.52058929 208.25994444 276.73704338 207.234375 277.90625 C206.55375 278.69 205.873125 279.47375 205.171875 280.28125 C202.33103859 281.70166821 200.31710222 281.59577272 197.171875 281.28125 C193.07076291 278.1529017 191.69763587 274.12421797 190.078125 269.40234375 C189.66802185 268.25137962 189.66802185 268.25137962 189.24963379 267.0771637 C188.37964067 264.62800267 187.52548503 262.17366297 186.671875 259.71875 C186.09871257 258.09532979 185.52450351 256.47227871 184.94921875 254.84960938 C183.84625849 251.73474586 182.74880195 248.6180405 181.65625 245.49951172 C179.8706782 240.4110613 178.02790903 235.34440164 176.171875 230.28125 C171.551875 229.95125 166.931875 229.62125 162.171875 229.28125 C161.81996094 230.6940625 161.46804688 232.106875 161.10546875 233.5625 C158.91207943 241.58991897 156.04652588 249.37390554 153.18383789 257.18164062 C152.22787962 259.79903421 151.29068449 262.42270448 150.35351562 265.046875 C149.74332694 266.7191662 149.13203845 268.39105661 148.51953125 270.0625 C148.24335464 270.84371216 147.96717804 271.62492432 147.68263245 272.42980957 C146.19571177 276.41827257 145.14544727 279.23329041 141.171875 281.28125 C138.234375 281.78125 138.234375 281.78125 135.171875 281.28125 C132.19849787 278.70528076 130.18158082 276.29746399 128.15625 272.9140625 C125.72586796 268.93317797 123.39150828 265.48383197 119.171875 263.28125 C111.73300989 262.17076515 104.13096418 263.3131703 96.74633789 264.43725586 C94.171875 264.28125 94.171875 264.28125 91.82983398 262.79907227 C89.52847533 259.3041655 89.51823955 256.2865992 90.171875 252.28125 C91.17429523 249.57783309 92.17988341 247.2343948 93.49609375 244.703125 C93.8393721 244.01043518 94.18265045 243.31774536 94.53633118 242.60406494 C95.62926372 240.40537037 96.74315482 238.21819949 97.859375 236.03125 C98.95345866 233.85668887 100.0428708 231.67989593 101.12886047 229.50128174 C101.8022739 228.153695 102.48079509 226.80864053 103.16593933 225.46697998 C105.22618259 221.38481843 107.050368 217.24046526 108.79914856 213.01470947 C109.46767963 211.40180716 109.46767963 211.40180716 110.14971638 209.75632095 C110.48702872 208.93954754 110.82434107 208.12277412 111.171875 207.28125 C110.19673006 207.28401538 109.22158512 207.28678076 108.21689034 207.28962994 C84.47130543 207.35627767 60.72573267 207.40555059 36.98007393 207.43668652 C25.49677325 207.45214446 14.01353442 207.47321354 2.53027344 207.50756836 C-7.48046668 207.53750347 -17.49116199 207.5568328 -27.50194561 207.56351548 C-32.80082123 207.56742076 -38.09956869 207.57657647 -43.39840317 207.59844017 C-48.39044047 207.61887023 -53.38229735 207.62507062 -58.37437248 207.62057304 C-60.20204716 207.62139533 -62.02972816 207.62732198 -63.85736656 207.63886642 C-78.43171686 207.72637622 -90.76812955 206.4209657 -102.05859375 196.27734375 C-110.4437367 187.48316944 -113.71243116 177.69195145 -114.38012695 165.77270508 C-114.42216657 165.0328301 -114.46420618 164.29295511 -114.50751972 163.53065968 C-114.99389254 154.16375895 -114.9924145 144.79512873 -114.99609375 135.41796875 C-114.99931976 133.44993569 -115.00268476 131.48190284 -115.00617981 129.51387024 C-115.01211924 125.41524704 -115.01402503 121.31664477 -115.01342773 117.21801758 C-115.01332622 112.02457218 -115.02699154 106.83126378 -115.04419994 101.63785076 C-115.0554385 97.58036204 -115.05734337 93.52290528 -115.05681801 89.4654026 C-115.05797986 87.55328715 -115.06229742 85.64117035 -115.07015038 83.72907066 C-115.10679122 73.89061755 -114.88158864 64.16331813 -113.91918945 54.36645508 C-113.83899409 53.54992557 -113.75879873 52.73339605 -113.67617321 51.89212322 C-112.35487158 39.7314098 -108.52863582 29.07628639 -99.08203125 20.90625 C-93.39347459 16.70197342 -87.58176783 13.50548595 -81.05859375 10.83984375 C-80.32755936 10.54059998 -79.59652496 10.2413562 -78.84333801 9.93304443 C-70.4274974 6.58935346 -61.77188687 4.29011956 -53.015625 2.03125 C-51.41183168 1.60782125 -49.80831484 1.18334388 -48.20507812 0.7578125 C-44.42650598 -0.24171556 -40.64400419 -1.22482031 -36.85830688 -2.19699097 C-34.96547848 -2.68345 -33.07387525 -3.17466932 -31.18237305 -3.66625977 C-30.12445557 -3.93752686 -29.06653809 -4.20879395 -27.9765625 -4.48828125 C-27.0798584 -4.71878174 -26.1831543 -4.94928223 -25.25927734 -5.18676758 C-16.04346993 -7.20336171 -7.9876956 -4.85440064 0 0 Z M-30.85546875 11.5625 C-31.80265274 11.81366577 -32.74983673 12.06483154 -33.72572327 12.3236084 C-35.72701232 12.85807198 -37.72638299 13.39976518 -39.72387695 13.94824219 C-42.72055969 14.76890849 -45.72351928 15.56195728 -48.72851562 16.3515625 C-73.82747638 22.81013698 -73.82747638 22.81013698 -94.203125 37.96875 C-101.45938735 52.76036172 -99.98058552 70.65523613 -99.9609375 86.7109375 C-99.96161298 88.67424532 -99.96258503 90.63755306 -99.96383667 92.6008606 C-99.96530284 96.69729414 -99.96319452 100.79370574 -99.95849609 104.89013672 C-99.95280709 110.09984529 -99.95607951 115.30950223 -99.96206856 120.51920891 C-99.96570997 124.56878029 -99.96451914 128.61833976 -99.96194077 132.66791153 C-99.96128097 134.58694592 -99.96206616 136.50598144 -99.96442032 138.4250145 C-101.28511101 163.33044256 -101.28511101 163.33044256 -91.703125 185.15625 C-85.32616167 190.85911573 -78.94768619 192.50294445 -70.48828125 192.37890625 C-68.61281616 192.35775757 -68.61281616 192.35775757 -66.69946289 192.33618164 C-65.75192139 192.3180542 -64.80437988 192.29992676 -63.828125 192.28125 C-63.82447937 191.2628302 -63.82083374 190.2444104 -63.81707764 189.19512939 C-63.78014934 179.60125797 -63.72240056 170.00770816 -63.64422226 160.41408157 C-63.60469931 155.48176993 -63.57253452 150.54963811 -63.55712891 145.6171875 C-63.54199398 140.85778152 -63.50760501 136.09886975 -63.45981598 131.33968353 C-63.44496945 129.52324466 -63.43708211 127.70673525 -63.43624115 125.8902359 C-63.43387952 123.34718529 -63.40686645 120.80550943 -63.37402344 118.26269531 C-63.38156898 117.13412613 -63.38156898 117.13412613 -63.38926697 115.98275757 C-63.32054983 112.54779577 -63.05273347 110.59272882 -61.02056885 107.77459717 C-58.828125 106.28125 -58.828125 106.28125 -55.203125 106.40625 C-51.828125 107.28125 -51.828125 107.28125 -49.828125 109.28125 C-49.61066558 111.92967934 -49.5167525 114.47628619 -49.50927734 117.12744141 C-49.49912409 117.95039389 -49.48897083 118.77334637 -49.4785099 119.6212368 C-49.44781269 122.29175742 -49.43070003 124.96217107 -49.4140625 127.6328125 C-49.39713433 129.27889941 -49.37931842 130.92497744 -49.3605957 132.57104492 C-49.2973318 138.68267792 -49.25128153 144.79447929 -49.203125 150.90625 C-49.079375 164.56 -48.955625 178.21375 -48.828125 192.28125 C0.011875 192.28125 48.851875 192.28125 99.171875 192.28125 C100.58805139 174.99556878 100.58805139 174.99556878 96.171875 167.28125 C94.35041697 165.41520735 94.35041697 165.41520735 92.296875 163.90625 C84.77645755 157.61619496 81.75675872 150.59799421 80.859375 140.90625 C81.80625037 129.92249568 86.2440076 124.09712042 93.921875 116.59375 C97.48227319 112.93445186 99.11765826 110.65335066 99.32421875 105.42578125 C99.26125203 103.9813679 99.18929003 102.53732484 99.109375 101.09375 C98.90939121 94.15156187 99.40904283 88.34708648 103.171875 82.28125 C103.71199219 81.74242187 104.25210938 81.20359375 104.80859375 80.6484375 C106.40723982 79.36699994 106.40723982 79.36699994 106.171875 77.28125 C107.03486206 76.85090454 107.03486206 76.85090454 107.9152832 76.41186523 C109.33983611 75.69812462 110.75858987 74.97257729 112.16870117 74.23071289 C118.03992289 71.33690823 122.99309706 70.72361238 129.484375 70.71875 C135.7536055 70.7401033 135.7536055 70.7401033 141.80859375 69.35546875 C144.20048257 65.71623389 143.19213285 61.82436232 142.671875 57.65625 C142.55199219 56.35880859 142.55199219 56.35880859 142.4296875 55.03515625 C141.49079837 46.57246635 138.71678132 38.09351755 132.171875 32.28125 C126.83081546 28.1950177 120.94230488 25.66989364 114.62890625 23.46484375 C113.8962001 23.20819443 113.16349396 22.9515451 112.40858459 22.68711853 C103.97780164 19.79281937 95.41748487 17.38695205 86.81176758 15.07397461 C84.0764396 14.33485039 81.3480541 13.57296945 78.61914062 12.81054688 C76.85454368 12.33194112 75.08958214 11.85467714 73.32421875 11.37890625 C72.52201401 11.15195572 71.71980927 10.92500519 70.89329529 10.69117737 C63.32478249 8.70418072 56.97760527 9.19301702 50.08789062 13.14257812 C49.43498047 13.53896484 48.78207031 13.93535156 48.109375 14.34375 C47.07780273 14.85131836 47.07780273 14.85131836 46.02539062 15.36914062 C43.65464523 16.82386227 42.59875993 17.87401096 41.171875 20.28125 C40.96619554 23.57872538 40.96619554 23.57872538 41.3684082 27.30786133 C41.42510303 28.00909056 41.48179787 28.71031979 41.54021072 29.43279839 C41.73165788 31.71777502 41.94883182 33.99915355 42.171875 36.28125 C42.2427577 37.03190042 42.3136404 37.78255085 42.38667107 38.55594826 C42.84403416 43.36584999 43.34065847 48.17105142 43.85086823 52.97560501 C44.32854402 57.49689396 44.78741436 62.02011563 45.25 66.54296875 C45.83543919 72.2541401 46.42638872 77.96460356 47.03515625 83.67333984 C47.53153135 88.33275672 48.01053034 92.99367526 48.4779892 97.65607834 C48.65821745 99.4213401 48.84483111 101.18596249 49.03806305 102.94984818 C49.30651781 105.40741667 49.55271078 107.86629177 49.79394531 110.32666016 C49.877966 111.04671234 49.96198669 111.76676453 50.04855347 112.50863647 C50.67413365 119.34848995 47.83041398 123.56611181 44.02734375 128.9609375 C43.43244141 129.80785156 42.83753906 130.65476562 42.22460938 131.52734375 C41.60908203 132.39488281 40.99355469 133.26242187 40.359375 134.15625 C39.75544922 135.01605469 39.15152344 135.87585938 38.52929688 136.76171875 C35.19748141 141.48866469 31.79884498 146.13934661 28.23168945 150.69189453 C26.98694544 152.2401966 26.98694544 152.2401966 27.171875 154.28125 C23.541875 154.28125 19.911875 154.28125 16.171875 154.28125 C15.511875 152.96125 14.851875 151.64125 14.171875 150.28125 C13.26429693 148.86750635 12.3313478 147.46985373 11.37890625 146.0859375 C10.83387451 145.2928418 10.28884277 144.49974609 9.72729492 143.68261719 C9.15213135 142.84891602 8.57696777 142.01521484 7.984375 141.15625 C7.40083252 140.29676758 6.81729004 139.43728516 6.21606445 138.55175781 C3.25701073 134.21011104 0.20124324 130.08825054 -3.140625 126.03125 C-9.75386578 116.39790395 -5.25116139 98.60810177 -4.078125 87.52734375 C-3.89801654 85.76961267 -3.71866934 84.01180343 -3.54003906 82.25392151 C-3.07301021 77.67395007 -2.59754384 73.09489905 -2.11962891 68.51605225 C-1.35291613 61.15859549 -0.59819167 53.79990675 0.15441895 46.44099617 C0.41724752 43.88484849 0.68440341 41.32918109 0.95214844 38.77354431 C1.11405083 37.20508018 1.27584074 35.63660444 1.4375 34.06811523 C1.51230591 33.36519348 1.58711182 32.66227173 1.66418457 31.93804932 C2.85743383 24.9705653 2.85743383 24.9705653 0.921875 18.69799805 C0.055625 18.12625854 0.055625 18.12625854 -0.828125 17.54296875 C-1.46878906 17.11564453 -2.10945313 16.68832031 -2.76953125 16.24804688 C-3.44886719 15.82587891 -4.12820312 15.40371094 -4.828125 14.96875 C-5.47652344 14.52724609 -6.12492187 14.08574219 -6.79296875 13.63085938 C-14.98871908 8.33202277 -21.81182719 9.06513254 -30.85546875 11.5625 Z M17.171875 24.28125 C15.63967548 34.39014329 14.45715189 44.50710082 13.4453125 54.6796875 C13.29137147 56.20994473 13.13728524 57.74018737 12.98306274 59.27041626 C12.66348674 62.44847488 12.34611088 65.62674352 12.03027344 68.80517578 C11.62707547 72.86026548 11.2175494 76.9146882 10.80631065 80.96896935 C10.48780333 84.1172426 10.17300708 87.26587881 9.859272 90.41463089 C9.70979079 91.9097477 9.55909694 93.40474384 9.40711594 94.89960861 C7.04241297 108.57541684 7.04241297 108.57541684 11.015625 121 C11.60214844 121.78632813 12.18867188 122.57265625 12.79296875 123.3828125 C13.41300781 124.17429687 14.03304687 124.96578125 14.671875 125.78125 C15.60193359 127.01488281 15.60193359 127.01488281 16.55078125 128.2734375 C18.07463551 130.2896139 19.61467665 132.29078861 21.171875 134.28125 C24.82186206 130.78037432 28.02311814 127.14054821 30.984375 123.03125 C31.77457031 121.97421875 32.56476563 120.9171875 33.37890625 119.828125 C36.62988208 113.3970007 35.17565802 105.97560011 34.45336914 98.96337891 C34.37694687 98.1865979 34.3005246 97.40981689 34.2217865 96.60949707 C33.9712621 94.07514276 33.71435107 91.54148514 33.45703125 89.0078125 C33.27977564 87.23427164 33.10281405 85.46070138 32.9261322 83.68710327 C32.55653562 79.9869118 32.18384285 76.2870495 31.80883789 72.58740234 C31.3281536 67.84328846 30.85458613 63.09849638 30.38321781 58.35344887 C30.01949307 54.69870038 29.6523857 51.04429795 29.2842083 47.38999557 C29.10821587 45.63977091 28.93319873 43.88944789 28.75917244 42.13902664 C28.51609538 39.69991241 28.26855514 37.26129218 28.01977539 34.82275391 C27.94856476 34.09962006 27.87735413 33.37648621 27.8039856 32.63143921 C27.49908455 29.68287775 27.11326099 27.10540796 26.171875 24.28125 C23.201875 24.28125 20.231875 24.28125 17.171875 24.28125 Z M153.58984375 78.0625 C146.28846883 84.76230768 138.1420922 84.80827344 128.72460938 84.68164062 C124.35414796 84.73559694 121.16546596 84.78167919 117.65234375 87.56640625 C113.21703859 92.42079536 112.9752091 95.45045754 113.234375 101.90625 C113.39851683 112.6056422 111.74857755 119.39150965 104.171875 127.31640625 C102.55923407 128.90069998 100.93052474 130.46862851 99.296875 132.03125 C96.45403606 135.04131476 95.23373571 137.05868295 95.1171875 141.24609375 C95.89323147 148.36817474 100.28656705 151.43846424 105.53125 155.859375 C110.2068738 160.14766901 112.26179237 165.02553637 113.171875 171.28125 C113.13376644 174.63133896 113.05340293 177.96571756 112.86914062 181.31054688 C112.73589888 186.51684475 113.92933883 189.26267085 117.171875 193.28125 C121.06222705 197.04192365 125.26739966 197.28566874 130.5390625 197.2734375 C131.69664062 197.23476563 132.85421875 197.19609375 134.046875 197.15625 C143.49235231 197.12648484 148.50812073 199.11678561 155.421875 205.50390625 C157.51569067 207.63043779 159.30908158 209.95275822 161.171875 212.28125 C165.38660643 214.81366825 169.37229328 215.20705764 174.171875 214.28125 C178.1518593 211.98662685 180.8095443 208.74577654 183.609375 205.15625 C187.40618539 200.89641395 191.82942361 199.06206713 197.171875 197.28125 C200.4591009 197.28849059 203.73180569 197.35518359 207.015625 197.49609375 C212.16890046 197.60264644 215.59457848 196.69546001 220.171875 194.28125 C224.11594076 190.02581063 225.26777305 187.73631432 225.05517578 181.97436523 C224.73584 172.36456043 225.76604934 164.12505417 232.046875 156.40625 C234.03622717 154.28562079 236.14289929 152.45719666 238.421875 150.65625 C241.33473362 148.14059937 242.39127818 147.01076814 243.171875 143.28125 C243.08578158 137.85736447 242.5101531 134.81230639 238.69921875 130.703125 C237.06459467 129.18137778 235.35303719 127.80117975 233.609375 126.40625 C228.53094862 122.19082418 226.08285711 116.759345 225.171875 110.28125 C225.20998356 106.93116104 225.29034707 103.59678244 225.47460938 100.25195312 C225.6080855 95.03649724 224.49220577 92.26217013 221.171875 88.28125 C218.2393777 85.67144735 216.45282635 84.91755531 212.5390625 84.9453125 C211.65508789 84.93636963 210.77111328 84.92742676 209.86035156 84.91821289 C208.9319043 84.91426514 208.00345703 84.91031738 207.046875 84.90625 C197.47248999 84.62584569 190.69362655 83.875234 183.7265625 76.796875 C182.16905927 75.06409005 180.64899729 73.296454 179.1796875 71.48828125 C176.00990281 68.00398485 173.97924746 67.35938282 169.296875 66.90625 C161.75221784 67.1707306 157.90787503 72.49576652 153.58984375 78.0625 Z M127.171875 211.28125 C122.74431165 220.02779885 118.39597549 228.80942122 114.171875 237.65625 C113.77427979 238.48229736 113.37668457 239.30834473 112.96704102 240.15942383 C112.41874634 241.31414185 112.41874634 241.31414185 111.859375 242.4921875 C111.53324219 243.17587402 111.20710937 243.85956055 110.87109375 244.56396484 C110.0461735 246.28094395 110.0461735 246.28094395 110.171875 248.28125 C111.22246094 248.16523438 112.27304688 248.04921875 113.35546875 247.9296875 C124.51658133 247.07931702 124.51658133 247.07931702 129.23828125 250.5078125 C131.42963952 253.0051871 133.37622367 255.4880146 135.171875 258.28125 C137.89158158 255.56154342 138.80537074 252.3699624 140.09765625 248.82421875 C140.50361275 247.71425285 140.50361275 247.71425285 140.91777039 246.5818634 C141.48674375 245.01535901 142.05223345 243.44758557 142.61450195 241.87866211 C143.47984002 239.4813138 144.37333863 237.09567534 145.26757812 234.70898438 C145.81688741 233.18553764 146.36447139 231.66146748 146.91015625 230.13671875 C147.3176989 229.06927681 147.3176989 229.06927681 147.73347473 227.98027039 C148.91498787 224.57804643 149.40820334 222.83533798 147.96948242 219.4621582 C143.83532535 214.32688046 143.83532535 214.32688046 138.171875 211.28125 C136.27716684 211.2127005 134.3801916 211.19644628 132.484375 211.21875 C131.49050781 211.22777344 130.49664062 211.23679687 129.47265625 211.24609375 C128.71339844 211.25769531 127.95414063 211.26929688 127.171875 211.28125 Z M192.296875 217.03125 C189.83400748 220.08788197 189.83400748 220.08788197 190.38256836 223.51782227 C191.19505791 227.39178651 192.31623286 231.03926802 193.67578125 234.74609375 C193.9185228 235.42426651 194.16126434 236.10243927 194.41136169 236.80116272 C195.17947802 238.942658 195.95674628 241.08069299 196.734375 243.21875 C197.26037699 244.68011863 197.7857735 246.14170535 198.31054688 247.60351562 C199.59067343 251.16531878 200.87901216 254.72405111 202.171875 258.28125 C203.12416992 257.51385498 204.07646484 256.74645996 205.05761719 255.95581055 C205.86111603 255.308321 205.86111603 255.308321 206.68084717 254.64775085 C208.39741835 253.1873925 208.39741835 253.1873925 210 250.48828125 C212.4573192 247.9911853 212.94329103 247.93684629 216.28125 247.79296875 C217.82888107 247.82603779 219.37613416 247.88543893 220.921875 247.96875 C222.11103516 248.00258789 222.11103516 248.00258789 223.32421875 248.03710938 C225.2742512 248.09584529 227.22330812 248.18552346 229.171875 248.28125 C224.83645212 238.47205298 220.47243772 228.68598552 215.671875 219.09375 C215.33414062 218.41763672 214.99640625 217.74152344 214.6484375 217.04492188 C213.2102974 213.95956088 213.2102974 213.95956088 211.171875 211.28125 C202.85853041 210.55592463 198.38838011 211.20459294 192.296875 217.03125 Z " fill="#606FFF" transform="translate(118.828125,213.71875)"/>
<path d="M0 0 C1.81502166 1.57769342 3.6054795 3.18393703 5.375 4.8125 C5.89304199 5.28284668 6.41108398 5.75319336 6.94482422 6.23779297 C27.66512713 25.23601668 39.45169256 50.32514927 41.27294922 78.44628906 C42.19978086 99.93636624 37.14687746 120.21470739 26.375 138.8125 C25.12657228 142.22486909 25.21099475 143.37515266 26.5 146.8125 C28.59437701 150.16350322 30.18073127 152.45151877 33.375 154.8125 C35.65885632 155.03573408 37.822906 154.93376432 40.11328125 154.81640625 C51.69538977 154.79640261 61.94738803 169.19302282 69.57421875 176.7734375 C70.14536722 177.34051044 70.71651569 177.90758339 71.30497169 178.49184036 C74.32221544 181.48836891 77.33627527 184.48805946 80.34790039 187.49023438 C83.43930451 190.57054396 86.54222132 193.63898342 89.64781475 196.70497704 C92.05414301 199.08505915 94.45144609 201.47408163 96.8464756 203.86552811 C97.98607108 205.00028634 99.12901192 206.13169617 100.2754879 207.25950241 C109.18203407 216.02983114 116.40417607 223.80019543 116.75 236.875 C116.81095462 245.45203819 114.43944553 251.19802578 108.9375 257.6875 C101.38075978 263.95406506 95.25532197 266.34302607 85.4609375 266.11328125 C70.33318665 264.63880427 60.07159687 250.67782956 49.91015625 240.55078125 C49.05244031 239.69730638 49.05244031 239.69730638 48.17739677 238.82658958 C45.16271615 235.82675559 42.15080743 232.82417286 39.14135742 229.8190918 C36.04585699 226.72911539 32.9411507 223.64856058 29.83429813 220.57000446 C27.42973471 218.18407924 25.03191965 215.79145817 22.63589287 213.39696312 C21.49375324 212.25783795 20.34912745 211.1211996 19.20192146 209.9871769 C17.60145913 208.40383151 16.01079754 206.81122152 14.42211914 205.21606445 C13.06504601 203.86445976 13.06504601 203.86445976 11.68055725 202.48554993 C7.62886163 197.78803713 6.09296888 193.96247585 6.125 187.8125 C5.85625126 183.48564529 5.49378331 181.10207224 2.25 178.125 C-1.13517455 175.48081988 -4.36551155 174.91692055 -8.625 174.8125 C-11.82294354 175.87811258 -14.71647385 177.42014228 -17.6875 179 C-25.57392802 182.95884202 -32.9789987 185.8757101 -41.625 187.8125 C-42.5221875 188.03550781 -43.419375 188.25851563 -44.34375 188.48828125 C-71.55047026 194.2345282 -100.42285595 187.64861383 -123.625 172.8125 C-127.46131922 169.98723043 -131.05090065 166.95892934 -134.625 163.8125 C-135.65625 163.02875 -136.6875 162.245 -137.75 161.4375 C-158.73573393 142.2766125 -169.01017985 114.74128608 -170.8125 86.91796875 C-171.4995788 58.27537118 -160.13058612 30.85418321 -140.77734375 9.9296875 C-126.3027701 -4.30845936 -108.2670801 -14.22082409 -88.625 -19.1875 C-87.74457031 -19.41308594 -86.86414063 -19.63867188 -85.95703125 -19.87109375 C-56.82584382 -25.96636385 -23.36321625 -18.50719892 0 0 Z M-132.75 23.9375 C-148.25941704 41.63792992 -156.94764373 65.21939563 -155.625 88.8125 C-153.7212434 114.90332819 -142.24195142 137.15896733 -122.578125 154.4609375 C-102.40219982 170.526952 -77.95107421 177.148766 -52.44580078 174.59423828 C-42.02630903 173.14997743 -32.22359695 169.66911186 -22.8671875 164.93359375 C-14.48295847 160.71180055 -7.6303925 157.87531751 1.8046875 160.484375 C7.52272821 162.6791785 11.38580457 166.2460898 15.375 170.8125 C17.355 169.1625 19.335 167.5125 21.375 165.8125 C20.98828125 165.31621094 20.6015625 164.81992188 20.203125 164.30859375 C14.45282389 156.80758215 10.03383031 150.64708726 10.375 140.8125 C11.33222301 134.69634879 13.98289682 129.51481065 16.8125 124.0625 C27.66701776 103.10381607 28.81515191 79.0990277 21.99609375 56.73095703 C14.6519603 34.04612972 -1.29978774 14.92750583 -22.359375 3.77734375 C-60.39807654 -15.29629162 -103.47862539 -6.45969671 -132.75 23.9375 Z M29.6875 178.0625 C28.87732422 178.83980469 28.06714844 179.61710938 27.23242188 180.41796875 C26.47123047 181.17207031 25.71003906 181.92617187 24.92578125 182.703125 C24.22106689 183.39438477 23.51635254 184.08564453 22.7902832 184.79785156 C21.18779136 186.64371296 21.18779136 186.64371296 21.4516449 188.57925415 C22.81944967 191.88745522 25.22848601 194.08282242 27.73339844 196.55908203 C28.29122009 197.12216064 28.84904175 197.68523926 29.42376709 198.26538086 C31.26982624 200.12464333 33.12664429 201.97271721 34.984375 203.8203125 C36.27178151 205.10973992 37.5587424 206.3996124 38.84527588 207.68991089 C41.54401418 210.39307325 44.24810689 213.0907324 46.95605469 215.78466797 C50.42421115 219.23574993 53.87874925 222.7001007 57.32937241 226.16870308 C59.98510464 228.83528542 62.64795293 231.4946691 65.31299591 234.15194321 C66.58942082 235.42636863 67.8636258 236.70302152 69.13555145 237.98193741 C70.91620955 239.77022793 72.70622713 241.54859652 74.49902344 243.32470703 C75.02181885 243.85357513 75.54461426 244.38244324 76.08325195 244.92733765 C79.5961599 248.38002186 82.64639787 250.67233208 87.65625 250.9296875 C92.66874375 250.3825491 95.77604106 249.62957766 99.375 245.8125 C101.06923447 242.95684686 101.69185187 240.75194365 101.75 237.4375 C101.77835937 236.70789063 101.80671875 235.97828125 101.8359375 235.2265625 C100.71008231 229.33013446 95.84315833 224.98948791 91.72021484 220.89892578 C91.1668898 220.3420961 90.61356476 219.78526642 90.04347229 219.21156311 C88.22926246 217.3886126 86.40790987 215.57300214 84.5859375 213.7578125 C83.31819908 212.488726 82.05075761 211.2193428 80.78359985 209.94967651 C78.13566364 207.2988001 75.48416419 204.65155461 72.83007812 202.00683594 C69.42232905 198.6105274 66.0236995 195.20525634 62.62764549 191.79725838 C60.01652943 189.17893366 57.40069155 186.56536837 54.78337479 183.95324326 C53.52754371 182.69874903 52.273204 181.44276005 51.02036667 180.18527603 C49.27535723 178.43521269 47.52411007 176.6916464 45.77099609 174.94970703 C45.25147873 174.4261412 44.73196136 173.90257538 44.19670105 173.36314392 C37.72918392 166.97216141 35.07265022 172.71646709 29.6875 178.0625 Z " fill="#1CA9FF" transform="translate(391.625,38.1875)"/>
<path d="M0 0 C16.45278665 12.99861045 27.6547583 30.71184143 30.546875 51.6796875 C32.62261002 74.68575066 26.85499548 94.61912921 12.546875 112.67578125 C3.91653096 122.74918606 -6.68690365 130.21399753 -19.171875 134.796875 C-20.74388672 135.3846875 -20.74388672 135.3846875 -22.34765625 135.984375 C-42.88960915 142.56511186 -64.5949904 139.72116304 -83.53173828 129.99536133 C-100.55473078 120.79958696 -113.70230594 105.57382214 -119.4519043 87.04931641 C-125.76780841 65.41154019 -124.29345763 44.13265769 -113.6796875 23.9609375 C-104.25350866 8.22057189 -90.47540462 -3.851492 -73.171875 -10.203125 C-72.12386719 -10.595 -71.07585937 -10.986875 -69.99609375 -11.390625 C-46.11876643 -19.0398689 -20.36393173 -14.14440578 0 0 Z M-95.0859375 23.93359375 C-104.87465434 36.3075358 -109.96909134 53.08040149 -108.171875 68.796875 C-105.1397323 87.3911831 -96.66771964 101.73224683 -81.734375 113.234375 C-67.43679237 123.05885678 -51.0733065 125.85164542 -34.07910156 123.50830078 C-18.13881427 120.45546941 -4.27722176 110.21828946 5.234375 97.296875 C14.38441482 82.94387137 18.24693955 66.60135281 14.74755859 49.84741211 C10.81311902 33.10710918 1.28903518 19.23695717 -13.171875 9.796875 C-41.86293623 -6.89038146 -73.27381009 -0.41586276 -95.0859375 23.93359375 Z " fill="#1CA9FF" transform="translate(373.171875,60.203125)"/>
<path d="M0 0 C15.0755956 11.81067736 22.14033199 26.22504859 25.75 44.875 C25.86632228 46.24760285 25.94343721 47.62363882 26 49 C26.0515625 50.1240625 26.103125 51.248125 26.15625 52.40625 C26.75823012 77.8900752 19.40672894 102.80178661 1.63208008 121.58081055 C-8.46771132 131.74375524 -22.60808994 138.98999564 -37.125 139.25 C-52.58562965 139.02294135 -66.637586 131.56473492 -77.38671875 120.8046875 C-94.29047646 102.66283692 -101.38832705 78.00212805 -101.15234375 53.6171875 C-100.34435397 34.43260963 -93.84801008 17.46861254 -80 4 C-59.20731993 -14.81242482 -22.74459082 -15.63690619 0 0 Z M-74.0625 19.3203125 C-84.70673228 33.58908939 -87.63625224 50.44248146 -85.53515625 67.8515625 C-82.75788601 85.93585598 -75.23117505 103.03181508 -61 115 C-53.12164644 120.7514498 -43.94600297 125.06564318 -34 124 C-20.83574009 121.31797761 -10.61191451 113.81008319 -2.8359375 102.98828125 C8.75376135 84.99603341 13.73836838 64.19987454 9.9375 43 C6.79621497 29.82734719 0.32032594 17.5972836 -11.42578125 10.35546875 C-31.19264993 -0.05288244 -58.82507897 2.17821384 -74.0625 19.3203125 Z " fill="#418AFF" transform="translate(178,68)"/>
<path d="M0 0 C4.87514213 2.43757106 7.20628999 6.81570417 8.91796875 11.93334961 C9.14226562 12.73393799 9.3665625 13.53452637 9.59765625 14.359375 C11.23504685 19.76603554 12.84910406 24.68116523 17.125 28.5625 C25.0536204 31.70812122 33.79779045 31.9907201 42.2434082 32.26977539 C45.08022028 32.55795108 46.7427068 33.03825795 49.125 34.5625 C50.9418617 36.98498226 51.13561069 38.29382216 51.015625 41.33203125 C49.87483138 45.46990988 47.61557911 47.66417254 44.5625 50.5 C44.02326904 51.02070068 43.48403809 51.54140137 42.9284668 52.07788086 C39.26444886 55.58802641 35.48734115 58.95711683 31.55078125 62.16015625 C29.85464803 63.61587197 29.85464803 63.61587197 29.125 66.5625 C29.3532975 68.73657275 29.3532975 68.73657275 29.90234375 71.09765625 C30.08603516 71.99033203 30.26972656 72.88300781 30.45898438 73.80273438 C30.85556599 75.65729888 31.25394918 77.51147921 31.65429688 79.36523438 C34.1644803 91.6012853 34.1644803 91.6012853 33.125 97.5625 C31.03633604 100.35638139 30.25271453 100.54027623 26.66796875 101.1640625 C19.43523543 100.88950642 13.28279302 95.71558318 7.34960938 92.0078125 C6.36412109 91.41484375 5.37863281 90.821875 4.36328125 90.2109375 C3.47680908 89.65583496 2.59033691 89.10073242 1.67700195 88.52880859 C-0.84497913 87.2911187 -0.84497913 87.2911187 -3.41601562 88.234375 C-5.7854781 89.51414822 -8.13951003 90.79215277 -10.45703125 92.1640625 C-11.30716797 92.65390625 -12.15730469 93.14375 -13.03320312 93.6484375 C-14.79738829 94.6713793 -16.55530739 95.70520762 -18.30664062 96.75 C-23.78775413 99.87733722 -27.53981784 101.49639924 -33.875 100.5625 C-36.01388897 98.98569974 -36.77177502 98.10082993 -37.27563477 95.47314453 C-37.23296017 90.75400568 -36.74950038 86.65199377 -35.40234375 82.1171875 C-32.87128018 73.47796345 -32.87128018 73.47796345 -32.875 64.5625 C-36.32607389 58.34598807 -42.16807611 54.29915322 -47.8046875 50.17260742 C-50.73273203 47.89543128 -52.758603 45.61147435 -54.875 42.5625 C-55 38.875 -55 38.875 -53.875 35.5625 C-50.12068093 32.65828673 -47.35807761 32.24177471 -42.68359375 32.2734375 C-29.43535865 32.22939916 -29.43535865 32.22939916 -18.44140625 25.98095703 C-14.54455504 19.79132974 -12.01300378 13.10790288 -9.87280273 6.13452148 C-8.85722244 3.51667506 -8.07616322 2.26422522 -5.875 0.5625 C-2.875 -0.4375 -2.875 -0.4375 0 0 Z M-2.875 26.5625 C-3.35710937 27.54992187 -3.83921875 28.53734375 -4.3359375 29.5546875 C-4.97374577 30.8490631 -5.61177829 32.14332821 -6.25 33.4375 C-6.56710937 34.08847656 -6.88421875 34.73945312 -7.2109375 35.41015625 C-8.56390121 38.14427041 -9.70272518 40.39022518 -11.875 42.5625 C-13.75439453 43.06494141 -13.75439453 43.06494141 -16.0078125 43.4140625 C-16.81347656 43.54296875 -17.61914062 43.671875 -18.44921875 43.8046875 C-19.71185547 43.99417969 -19.71185547 43.99417969 -21 44.1875 C-21.84949219 44.3215625 -22.69898438 44.455625 -23.57421875 44.59375 C-25.67334644 44.92394986 -27.77403911 45.24417259 -29.875 45.5625 C-26.09029899 50.27511244 -26.09029899 50.27511244 -21.625 54.3125 C-18.875 56.5625 -18.875 56.5625 -17.875 58.5625 C-17.43735275 65.2559286 -18.08355864 71.92004569 -18.875 78.5625 C-17.93398438 78.0571875 -16.99296875 77.551875 -16.0234375 77.03125 C-14.76595981 76.37435867 -13.50812831 75.71814433 -12.25 75.0625 C-11.63253906 74.72863281 -11.01507813 74.39476562 -10.37890625 74.05078125 C-6.33467451 71.96480909 -3.40152152 70.90238228 1.125 71.5625 C3.70515238 72.64539051 6.05527047 73.74061075 8.5 75.0625 C9.14066406 75.39636719 9.78132813 75.73023438 10.44140625 76.07421875 C12.00833671 76.89276451 13.56750241 77.72614513 15.125 78.5625 C14.98052017 77.06236903 14.83432785 75.56240298 14.6875 74.0625 C14.60113281 73.15113281 14.51476562 72.23976562 14.42578125 71.30078125 C14.16456161 68.92266479 13.78479226 66.60517972 13.375 64.25 C13.08322464 59.94631341 13.66618316 58.99231457 16.125 55.5625 C17.80254948 53.92457767 19.53491464 52.34127471 21.3125 50.8125 C22.93185946 49.41322516 24.54060128 48.00124105 26.125 46.5625 C26.125 46.2325 26.125 45.9025 26.125 45.5625 C24.24554688 45.32466797 24.24554688 45.32466797 22.328125 45.08203125 C20.67692225 44.8474854 19.0258888 44.61174556 17.375 44.375 C16.55 44.27380859 15.725 44.17261719 14.875 44.06835938 C10.89468655 43.47452229 8.71708969 43.1161423 5.71875 40.3125 C4.09255728 37.50652041 2.66563797 34.72563753 1.375 31.75 C0.94703125 30.77417969 0.5190625 29.79835938 0.078125 28.79296875 C-0.23640625 28.05691406 -0.5509375 27.32085937 -0.875 26.5625 C-1.535 26.5625 -2.195 26.5625 -2.875 26.5625 Z " fill="#1CA9FF" transform="translate(328.875,67.4375)"/>
<path d="M0 0 C10.19340883 8.26437728 15.51474794 19.84385685 16.875 32.6875 C17.59839491 46.64299347 13.69876771 57.69530372 4.75 68.1875 C-4.29703803 77.78509791 -14.78983776 82.94457229 -28.11035156 83.421875 C-41.38603725 83.52173911 -53.50664103 79.49552417 -63.3125 70.25 C-72.63030811 60.22571874 -77 48.60843961 -77 35 C-75.84789637 20.79672247 -70.55366808 10.02581624 -60.25 0.25 C-42.77376074 -14.34740139 -17.87909204 -13.10922826 0 0 Z M-55.53125 17.796875 C-60.33741568 24.11195316 -62.55077454 31.50973948 -61.75390625 39.453125 C-60.0124632 49.50109727 -55.93546544 56.51649473 -48 63 C-40.32240667 67.8263132 -32.99514273 68.79858234 -24 68 C-14.27222 65.46830054 -7.6432052 60.65572755 -2.26171875 52.28125 C2.18683275 44.23804853 2.93255899 36.32160212 0.625 27.4375 C-2.45902658 18.55508099 -7.97050454 12.26252276 -16.3125 7.9375 C-30.95380315 1.31236927 -45.31637464 5.81003147 -55.53125 17.796875 Z " fill="#4F7DFF" transform="translate(318,318)"/>
</svg>
