<?xml version="1.0" encoding="UTF-8"?>
<svg version="1.1" xmlns="http://www.w3.org/2000/svg" width="512" height="512">
<path d="M0 0 C0.83281998 -0.00846954 1.66563995 -0.01693909 2.5236969 -0.02566528 C5.280357 -0.04908994 8.03646074 -0.05005616 10.79321289 -0.04882812 C12.70748621 -0.05592644 14.6217574 -0.06362495 16.536026 -0.07189941 C20.55011915 -0.08535681 24.56401558 -0.08690736 28.578125 -0.08105469 C33.72454427 -0.07515761 38.87002048 -0.10574453 44.01625729 -0.14617157 C47.97023105 -0.17200959 51.92397659 -0.17492953 55.87802315 -0.17127991 C57.77547132 -0.17297484 59.67292962 -0.18265311 61.57029533 -0.20042419 C64.22328841 -0.22253733 66.87435779 -0.21295201 69.52734375 -0.1953125 C70.31241302 -0.20857574 71.0974823 -0.22183899 71.90634155 -0.23550415 C75.76792965 -0.17578431 77.47675926 0.09438997 80.35499573 2.75915527 C82.68857003 6.97335956 81.37545511 10.19738512 80.26586914 14.70507812 C77.97048557 24.76332141 78.67081377 34.32256726 83.82836914 43.41992188 C89.84028178 52.01746643 98.29689326 58.50880463 108.82836914 60.41992188 C120.25131095 61.37575102 130.04704094 59.47264433 139.05102539 52.10742188 C145.88581269 45.61812931 150.39753626 37.91304116 151.14086914 28.43554688 C151.30031839 22.05172552 151.07080812 16.49903379 148.82836914 10.41992188 C148.40502285 6.89203608 148.27707889 5.2031984 150.33972168 2.27258301 C153.78722367 -0.29389258 156.88879595 -0.14088321 161.02172852 -0.09765625 C161.84494095 -0.10466553 162.66815338 -0.1116748 163.51631165 -0.11889648 C166.2352581 -0.13649003 168.95316225 -0.12484923 171.67211914 -0.11132812 C173.56254272 -0.11402266 175.45296495 -0.11790475 177.34338379 -0.1229248 C181.30449627 -0.12882169 185.26524784 -0.1202508 189.22631836 -0.1015625 C194.30424475 -0.07877282 199.38132552 -0.09189489 204.45922089 -0.11585236 C208.36259332 -0.13030521 212.26576521 -0.1257067 216.16914368 -0.11534119 C218.04144897 -0.11267248 219.91377247 -0.11594871 221.78605652 -0.1252594 C224.402865 -0.13541663 227.01830337 -0.11993631 229.63500977 -0.09765625 C230.40915726 -0.10575317 231.18330475 -0.1138501 231.98091125 -0.12219238 C235.40637101 -0.06814897 237.47215399 0.17118491 240.31207275 2.15423584 C242.06197593 4.76898268 242.31602142 6.06826015 242.2824707 9.18847656 C242.28201752 10.59948639 242.28201752 10.59948639 242.28155518 12.03900146 C242.26091003 13.04642395 242.24026489 14.05384644 242.21899414 15.09179688 C242.21333435 16.1293512 242.20767456 17.16690552 242.20184326 18.23590088 C242.17946405 21.54771179 242.12926333 24.85843832 242.07836914 28.16992188 C242.0583062 30.41599999 242.04005508 32.66209508 242.02368164 34.90820312 C241.97959432 40.41247896 241.91266655 45.91612295 241.82836914 51.41992188 C242.99577637 51.37206543 242.99577637 51.37206543 244.18676758 51.32324219 C246.82836914 51.41992188 246.82836914 51.41992188 249.09399414 52.96679688 C251.41621294 56.25137662 251.4305573 58.67900206 251.57836914 62.66992188 C251.63508789 63.93320313 251.69180664 65.19648438 251.75024414 66.49804688 C251.77602539 67.46226562 251.80180664 68.42648438 251.82836914 69.41992188 C252.77454102 69.56171875 253.72071289 69.70351562 254.69555664 69.84960938 C257.82836914 70.41992188 257.82836914 70.41992188 259.95336914 71.54492188 C262.40289631 72.68803455 263.31229832 72.31986481 265.82836914 71.41992188 C267.55384775 69.93683193 269.08951222 68.34569957 270.65649414 66.69726562 C274.03988502 64.70739365 277.10010834 64.48086778 280.82836914 65.41992188 C283.89757011 67.38740559 286.27530247 69.8372855 288.76586914 72.48242188 C289.43682617 73.13919922 290.1077832 73.79597656 290.79907227 74.47265625 C293.87780036 77.63232158 295.64804824 79.86486243 297.02758789 84.11132812 C296.77643001 88.2825188 295.64771078 89.40888403 292.70336914 92.29492188 C289.55496432 95.64622849 289.55496432 95.64622849 288.92602539 99.95507812 C289.72751782 102.24771926 290.6727144 104.2874118 291.82836914 106.41992188 C292.15836914 107.40992188 292.48836914 108.39992188 292.82836914 109.41992188 C294.05813477 109.49339844 294.05813477 109.49339844 295.31274414 109.56835938 C296.39040039 109.643125 297.46805664 109.71789062 298.57836914 109.79492188 C299.64571289 109.86453125 300.71305664 109.93414062 301.81274414 110.00585938 C304.65598945 110.39625316 306.43974011 110.86842918 308.82836914 112.41992188 C310.94218618 116.64755596 310.05775944 122.21250987 310.07836914 126.85742188 C310.10930664 128.59475586 310.10930664 128.59475586 310.14086914 130.3671875 C310.14602539 131.47642578 310.15118164 132.58566406 310.15649414 133.72851562 C310.16583984 134.74743896 310.17518555 135.7663623 310.18481445 136.81616211 C309.82836914 139.41992187 309.82836914 139.41992187 308.43286133 141.21313477 C305.01478967 143.78396986 302.42542032 143.52381453 298.20336914 143.48242188 C297.01485352 143.47339844 295.82633789 143.464375 294.60180664 143.45507812 C293.68657227 143.44347656 292.77133789 143.431875 291.82836914 143.41992188 C291.6234082 144.03480469 291.41844727 144.6496875 291.20727539 145.28320312 C290.08097331 148.66210937 288.95467122 152.04101562 287.82836914 155.41992188 C288.39426758 155.98839844 288.96016602 156.556875 289.54321289 157.14257812 C292.84045156 160.61366066 295.46197104 163.5118918 297.26586914 167.98242188 C296.58889286 173.30152122 293.53832962 175.75692292 289.82836914 179.41992188 C289.10520508 180.2475 288.38204102 181.07507813 287.63696289 181.92773438 C281.26468234 188.99819522 281.26468234 188.99819522 276.89086914 189.54492188 C270.99725898 188.90198258 266.73261972 183.45218067 262.82836914 179.41992188 C262.28567383 179.63648438 261.74297852 179.85304688 261.18383789 180.07617188 C260.4684082 180.35460937 259.75297852 180.63304687 259.01586914 180.91992188 C257.95432617 181.33757812 257.95432617 181.33757812 256.87133789 181.76367188 C254.82836914 182.41992188 254.82836914 182.41992188 251.82836914 182.41992188 C251.80258789 183.52851563 251.77680664 184.63710938 251.75024414 185.77929688 C251.69395258 187.24287735 251.63660547 188.70641749 251.57836914 190.16992188 C251.56418945 190.89953125 251.55000977 191.62914062 251.53540039 192.38085938 C251.37851434 195.83235258 251.07312539 198.06491507 249.09399414 200.93554688 C246.40535607 202.69706837 244.97143638 202.5435622 241.82836914 202.41992188 C241.83725159 202.99985901 241.84613403 203.57979614 241.85528564 204.17730713 C241.94375943 210.21169176 242.00410336 216.24589225 242.0480957 222.28076172 C242.06821471 224.53311649 242.09551322 226.78541901 242.13012695 229.03759766 C242.17863124 232.27454518 242.20133519 235.51080234 242.21899414 238.74804688 C242.23963928 239.75546936 242.26028442 240.76289185 242.28155518 241.80084229 C242.2818573 242.7415155 242.28215942 243.68218872 242.2824707 244.65136719 C242.29135315 245.47743469 242.3002356 246.3035022 242.30938721 247.15460205 C241.62301647 250.38701546 240.50286461 251.50212679 237.82836914 253.41992188 C234.61395264 253.90093994 234.61395264 253.90093994 230.76489258 253.87402344 C229.7106308 253.8748996 229.7106308 253.8748996 228.6350708 253.87579346 C226.31878762 253.87301326 224.00380165 253.841927 221.68774414 253.81054688 C220.07921044 253.80308419 218.47066763 253.79739139 216.86212158 253.793396 C212.63357329 253.77814165 208.40557676 253.73886206 204.17724609 253.69458008 C199.86050887 253.65362278 195.54368227 253.63538403 191.22680664 253.61523438 C182.76040793 253.57236715 174.29445722 253.50411881 165.82836914 253.41992188 C166.15836914 254.07992187 166.48836914 254.73992187 166.82836914 255.41992188 C168.05129062 271.85919419 164.71569474 285.79578005 153.94946289 298.66601562 C145.17121853 308.0472101 132.71837326 314.46510676 119.82836914 315.41992188 C118.87124023 315.49726562 118.87124023 315.49726562 117.89477539 315.57617188 C104.35717582 316.17232305 91.51327931 311.64103963 81.03930664 303.16210938 C71.82183199 294.50158183 64.36116338 283.11553254 63.71704102 270.18505859 C63.5871823 264.91635539 63.70933819 259.69696051 63.82836914 254.41992188 C53.92836914 253.92492187 53.92836914 253.92492187 43.82836914 253.41992188 C43.64274414 254.78117188 43.45711914 256.14242187 43.26586914 257.54492188 C40.67313039 270.2565438 33.45188208 281.75060521 23.05493164 289.48242188 C19.21424501 292.00780487 15.84606568 294.14652807 11.38037109 295.34619141 C8.88742936 296.41801198 7.99907797 297.10318504 6.69750977 299.5181427 C5.72900869 302.34559108 4.95333545 305.17410255 4.22290039 308.07226562 C3.93154709 309.12394424 3.64019379 310.17562286 3.3400116 311.25917053 C2.41318654 314.61855514 1.52488089 317.98654106 0.64086914 321.35742188 C-0.25899618 324.72296145 -1.16701067 328.08580037 -2.09040833 331.44496155 C-2.66303044 333.5343811 -3.22128816 335.62780295 -3.76347351 337.72532654 C-4.02086807 338.67633743 -4.27826263 339.62734833 -4.54345703 340.60717773 C-4.76216965 341.44196152 -4.98088226 342.2767453 -5.20622253 343.13682556 C-6.44638816 346.06969603 -7.60409515 347.51653213 -10.17163086 349.41992188 C-13.35913086 349.92785645 -13.35913086 349.92785645 -17.17163086 349.9375 C-17.86804688 349.94450928 -18.56446289 349.95151855 -19.28198242 349.95874023 C-21.57894018 349.97631383 -23.87466107 349.96470107 -26.17163086 349.95117188 C-27.77059159 349.95386701 -29.36955073 349.9577496 -30.96850586 349.96276855 C-34.31762312 349.96866269 -37.66631329 349.9601038 -41.01538086 349.94140625 C-45.30641677 349.91861623 -49.59645197 349.93173983 -53.88745117 349.95569611 C-57.18863452 349.97015667 -60.48958097 349.96554703 -63.79077148 349.95518494 C-65.37280394 349.95251834 -66.95485797 349.9557851 -68.53686523 349.96510315 C-70.74903249 349.97527366 -72.95958386 349.95976378 -75.17163086 349.9375 C-76.42975586 349.93431763 -77.68788086 349.93113525 -78.98413086 349.92785645 C-82.17163086 349.41992188 -82.17163086 349.41992188 -84.58294678 347.62072754 C-86.95326416 344.33712448 -86.71850833 341.26746314 -86.17163086 337.41992188 C-85.47657338 334.56255899 -84.50906879 331.85552583 -83.46850586 329.10742188 C-83.18944397 328.33543457 -82.91038208 327.56344727 -82.62286377 326.76806641 C-81.73441555 324.3141216 -80.82955629 321.86672039 -79.92163086 319.41992188 C-71.7370041 297.22621797 -66.89129432 276.58085094 -66.86667061 252.82224274 C-66.86294444 249.92602123 -66.8460508 247.03012363 -66.82591248 244.13397217 C-66.77109529 235.90968915 -66.73994926 227.68536071 -66.71533203 219.4609375 C-66.69928541 214.40015757 -66.66889759 209.33961106 -66.63056755 204.27895355 C-66.61907307 202.37358869 -66.61298859 200.46818182 -66.61288643 198.56278229 C-66.60998757 158.89215232 -52.50612192 130.36200283 -25.57983398 101.92089844 C-22.68466405 98.83499262 -19.90694988 95.64759832 -17.17163086 92.41992188 C-15.90471909 91.13319832 -15.90471909 91.13319832 -14.61221313 89.82048035 C-11.6228198 86.2062549 -11.4787822 82.72238671 -11.55981445 78.16723633 C-11.55131721 76.95883087 -11.55131721 76.95883087 -11.54264832 75.72601318 C-11.52920354 73.07792862 -11.55004564 70.43122669 -11.57006836 67.78320312 C-11.5645668 65.9380754 -11.55644094 64.09295379 -11.54580688 62.24784851 C-11.52295011 57.40080778 -11.52713327 52.55421863 -11.53961182 47.70715332 C-11.55794198 39.93867015 -11.54803088 32.17044903 -11.51375198 24.40202904 C-11.50763553 21.68800869 -11.52092004 18.97455051 -11.53573608 16.26057434 C-11.5327892 14.60185601 -11.52913518 12.94313873 -11.5246582 11.28442383 C-11.53394852 10.52852463 -11.54323883 9.77262543 -11.55281067 8.99382019 C-11.5315315 6.21461916 -11.4456124 3.95233787 -10.16029358 1.45463562 C-6.92054995 -0.2310234 -3.5674905 -0.01328292 0 0 Z M2.82836914 14.41992188 C2.82836914 62.59992188 2.82836914 110.77992188 2.82836914 160.41992188 C4.91736227 157.6345977 6.39647678 155.5119286 7.87915039 152.48632812 C8.433125 151.38901367 8.433125 151.38901367 8.99829102 150.26953125 C9.75611758 148.75258269 10.5062184 147.23174836 11.24829102 145.70703125 C14.0938582 140.11910398 17.02376932 136.23023436 22.84790039 133.45898438 C29.71806116 131.8724113 35.86049436 132.0334591 42.14086914 135.48242188 C46.35956355 138.45487522 48.44409291 141.46625623 49.82836914 146.41992188 C50.66224162 155.48262903 49.10328176 163.97070917 47.26324463 172.7930603 C42.73781136 194.92576354 43.27767047 216.93305964 43.82836914 239.41992188 C61.64836914 239.91492188 61.64836914 239.91492188 79.82836914 240.41992188 C80.85913837 248.66607572 80.85913837 248.66607572 78.82836914 254.41992188 C76.84774103 265.78152492 78.57444246 275.66315647 84.82836914 285.41992188 C90.5808215 292.92079943 99.41268817 298.74440418 108.82836914 300.41992188 C120.32931935 301.38227848 129.99612423 299.43718306 139.05102539 292.04882812 C146.27350363 285.42954587 151.54023546 277.7320598 151.99633789 267.74023438 C152.00823356 266.34183232 152.01458616 264.94337394 152.01586914 263.54492188 C152.02811523 262.85011719 152.04036133 262.1553125 152.05297852 261.43945312 C152.06546723 257.01844738 151.37162005 253.54123921 149.82836914 249.41992188 C149.31746373 244.20868671 149.31746373 244.20868671 150.89631653 241.77116394 C153.77923991 239.75490035 156.65858282 239.98049282 160.05371094 239.98754883 C161.15164474 239.97226135 161.15164474 239.97226135 162.27175903 239.95666504 C164.69044593 239.92647756 167.10873718 239.91726062 169.52758789 239.90820312 C171.20483218 239.89136065 172.88206381 239.87321099 174.5592804 239.85380554 C178.97331793 239.80625234 183.38730416 239.77647754 187.80151367 239.75036621 C193.09801148 239.71535159 198.3943122 239.65832382 203.69065094 239.60497284 C211.7365323 239.52639651 219.78215459 239.47583853 227.82836914 239.41992188 C227.82836914 227.20992187 227.82836914 214.99992187 227.82836914 202.41992188 C225.51836914 201.75992188 223.20836914 201.09992188 220.82836914 200.41992188 C219.36903166 194.42672037 218.41327793 188.56146412 217.82836914 182.41992188 C214.2220295 180.29239075 211.02563229 178.81000209 206.82836914 178.41992188 C203.54479428 180.36558208 201.17688382 182.56778089 198.53149414 185.31054688 C195.82836914 187.41992188 195.82836914 187.41992188 192.46118164 188.12695312 C187.33512448 187.12930114 184.97344775 184.56138519 181.45336914 180.85742188 C180.8255957 180.24833984 180.19782227 179.63925781 179.55102539 179.01171875 C176.55666846 175.95592253 174.97551127 173.9018508 173.70727539 169.74804688 C173.84934895 165.84331556 174.56652487 164.60598853 177.14086914 161.73242188 C180.60427575 157.94818628 180.60427575 157.94818628 182.82836914 153.41992188 C182.20578295 150.77569971 182.20578295 150.77569971 180.95336914 148.16992188 C180.56407227 147.27789062 180.17477539 146.38585937 179.77368164 145.46679688 C179.46172852 144.79132813 179.14977539 144.11585938 178.82836914 143.41992188 C177.86415039 143.3709375 176.89993164 143.32195312 175.90649414 143.27148438 C174.64321289 143.19671875 173.37993164 143.12195313 172.07836914 143.04492188 C170.82540039 142.9753125 169.57243164 142.90570313 168.28149414 142.83398438 C165.20346163 142.46489903 163.32746495 142.20325723 160.82836914 140.41992188 C159.34829172 135.97968961 159.64399674 131.6331689 159.64086914 126.98242188 C159.62862305 126.02787109 159.61637695 125.07332031 159.60375977 124.08984375 C159.60182617 123.16880859 159.59989258 122.24777344 159.59790039 121.29882812 C159.5937915 120.45908447 159.58968262 119.61934082 159.58544922 118.75415039 C159.85477669 116.16617056 160.38544085 114.58176178 161.82836914 112.41992188 C165.14381213 111.31477421 168.03247025 111.09884556 171.51586914 110.85742188 C172.69536133 110.77363281 173.87485352 110.68984375 175.09008789 110.60351562 C175.9937207 110.54292969 176.89735352 110.48234375 177.82836914 110.41992188 C178.52970513 108.8426684 179.21395214 107.25780854 179.89086914 105.66992188 C180.2737207 104.78820312 180.65657227 103.90648437 181.05102539 102.99804688 C181.90827842 100.15489611 182.00391006 99.11228979 180.82836914 96.41992188 C179.05186805 94.16384889 177.15734611 92.05676016 175.22680664 89.93164062 C173.82836914 87.41992188 173.82836914 87.41992188 173.70336914 84.09179688 C175.21649576 79.15311972 177.80169052 76.52537495 181.45336914 72.98242188 C182.05793945 72.34626953 182.66250977 71.71011719 183.28540039 71.0546875 C186.39872369 67.96459796 188.08573582 66.54790762 192.50024414 65.78710938 C196.21610379 66.49364607 197.71148953 67.43496645 200.45336914 69.98242188 C202.5272223 72.01728308 202.5272223 72.01728308 204.82836914 73.41992188 C208.14502562 73.1715607 211.05464285 72.06052704 214.14086914 70.85742188 C215.35774414 70.38304687 216.57461914 69.90867188 217.82836914 69.41992188 C217.93793945 68.44410156 218.04750977 67.46828125 218.16040039 66.46289062 C218.31895508 65.19058594 218.47750977 63.91828125 218.64086914 62.60742188 C218.86709961 60.71056641 218.86709961 60.71056641 219.09790039 58.77539062 C219.82836914 55.41992187 219.82836914 55.41992187 221.09008789 53.53320312 C222.82836914 52.41992188 222.82836914 52.41992188 227.82836914 51.41992188 C227.82836914 39.20992187 227.82836914 26.99992187 227.82836914 14.41992188 C207.36836914 14.41992188 186.90836914 14.41992188 165.82836914 14.41992188 C165.82836914 20.35992187 165.82836914 26.29992187 165.82836914 32.41992188 C165.0184492 36.51214894 164.31675898 39.65375325 162.82836914 43.41992188 C162.33530273 44.67482422 162.33530273 44.67482422 161.83227539 45.95507812 C156.17549063 58.61922948 145.77168279 67.35207911 133.13696289 72.60742188 C119.18519766 77.51768781 103.96833176 76.27001552 90.67602539 69.91210938 C76.22285724 61.19561245 68.87618127 49.61117039 64.82836914 33.41992188 C64.82836914 27.14992187 64.82836914 20.87992188 64.82836914 14.41992188 C44.36836914 14.41992188 23.90836914 14.41992188 2.82836914 14.41992188 Z M232.82836914 66.41992188 C232.16836914 71.03992188 231.50836914 75.65992188 230.82836914 80.41992188 C229.24024414 80.79117188 227.65211914 81.16242188 226.01586914 81.54492188 C221.6078953 82.71924695 218.00920455 84.30125907 214.07836914 86.60742188 C209.73771386 89.06404805 206.89705912 90.56754979 201.82836914 89.41992188 C199.61674252 87.94962261 197.61693738 86.39143907 195.62524414 84.63476562 C195.03227539 84.23386719 194.43930664 83.83296875 193.82836914 83.41992188 C192.83836914 83.74992187 191.84836914 84.07992187 190.82836914 84.41992188 C192.03787084 87.27874408 193.3171366 88.95523861 195.45336914 91.29492188 C197.82836914 94.41992188 197.82836914 94.41992188 198.45336914 97.16992188 C197.6945793 101.11562906 196.09193241 104.08908316 194.19946289 107.61132812 C192.2429928 111.61902612 190.99961621 115.78405399 189.72290039 120.04882812 C188.82836914 122.41992188 188.82836914 122.41992188 186.82836914 123.41992188 C184.79089284 123.64850301 182.74796611 123.83016465 180.70336914 123.98242188 C179.60766602 124.06621094 178.51196289 124.15 177.38305664 124.23632812 C176.54000977 124.29691406 175.69696289 124.3575 174.82836914 124.41992188 C174.237669 126.36595462 174.237669 126.36595462 173.82836914 128.41992188 C175.99535153 130.58690426 180.91315778 129.74203987 183.84790039 129.84570312 C187.49018849 130.54742836 188.60165223 131.49266481 190.82836914 134.41992188 C191.95336914 136.93554688 191.95336914 136.93554688 192.82836914 139.66992188 C194.02074842 143.23755869 195.30195515 146.45270929 197.14086914 149.73242188 C198.42708946 152.26884835 198.8333222 153.49917075 199.01586914 156.41992188 C197.49006796 160.2745775 195.13403829 162.67491346 192.22680664 165.58789062 C191.53458008 166.49474609 191.53458008 166.49474609 190.82836914 167.41992188 C191.15836914 168.40992188 191.48836914 169.39992188 191.82836914 170.41992188 C196.02773176 169.69715576 197.86554414 167.66980233 200.75415039 164.69726562 C203.88913805 162.76668001 206.20968257 163.06190288 209.82836914 163.41992188 C213.07446289 164.66210938 213.07446289 164.66210938 216.26586914 166.29492188 C221.13750998 168.68011323 225.51683824 170.37844523 230.82836914 171.41992188 C231.48836914 176.69992187 232.14836914 181.97992188 232.82836914 187.41992188 C234.14836914 187.41992188 235.46836914 187.41992188 236.82836914 187.41992188 C236.91924805 186.31583984 236.91924805 186.31583984 237.01196289 185.18945312 C237.09575195 184.21363281 237.17954102 183.2378125 237.26586914 182.23242188 C237.34708008 181.26949219 237.42829102 180.3065625 237.51196289 179.31445312 C237.80503065 176.63342586 238.25540668 174.05362327 238.82836914 171.41992188 C239.50641602 171.26136719 240.18446289 171.1028125 240.88305664 170.93945312 C245.96021295 169.66664801 250.46441718 168.23105432 255.07836914 165.73242188 C259.28868217 163.57090684 262.04007825 162.28814403 266.82836914 163.41992188 C270.09135482 165.83830837 272.98177967 168.52814844 275.82836914 171.41992188 C276.81836914 170.42992187 277.80836914 169.43992187 278.82836914 168.41992188 C278.3346582 167.90042969 277.84094727 167.3809375 277.33227539 166.84570312 C276.69161133 166.14832031 276.05094727 165.4509375 275.39086914 164.73242188 C274.7527832 164.04792969 274.11469727 163.3634375 273.45727539 162.65820312 C271.54264907 160.02731372 270.91840285 158.68008999 270.82836914 155.41992188 C271.8096979 152.84249075 272.82498796 150.54232656 274.07836914 148.10742188 C274.73563911 146.77523167 275.39061301 145.44190602 276.04321289 144.10742188 C276.35629395 143.47191406 276.669375 142.83640625 276.99194336 142.18164062 C278.01171007 140.03376072 278.85346287 137.85008685 279.64086914 135.60742188 C280.82836914 132.41992188 280.82836914 132.41992188 282.82836914 130.41992188 C285.64868164 130.00585938 285.64868164 130.00585938 288.95336914 129.79492188 C290.04907227 129.72015625 291.14477539 129.64539063 292.27368164 129.56835938 C293.11672852 129.519375 293.95977539 129.47039062 294.82836914 129.41992188 C295.15836914 128.09992188 295.48836914 126.77992188 295.82836914 125.41992188 C292.81152516 123.91149989 289.67492036 124.1386532 286.33618164 123.99414062 C283.01868583 123.2345271 281.89362377 122.10654099 279.82836914 119.41992188 C278.70336914 116.46679688 278.70336914 116.46679688 277.82836914 113.16992188 C276.70254646 109.16450493 275.55702606 105.60880719 273.51586914 101.98242188 C271.82836914 98.41992188 271.82836914 98.41992188 271.70336914 95.29492188 C273.27889708 91.26857269 275.61413687 89.29221454 278.82836914 86.41992188 C277.83836914 84.43992187 277.83836914 84.43992187 276.82836914 82.41992188 C276.34625977 82.84144531 275.86415039 83.26296875 275.36743164 83.69726562 C274.4199707 84.51904297 274.4199707 84.51904297 273.45336914 85.35742188 C272.82688477 85.90269531 272.20040039 86.44796875 271.55493164 87.00976562 C268.29248081 89.67434651 265.99412301 89.72215311 261.82836914 89.41992188 C259.00415039 88.24804688 259.00415039 88.24804688 256.14086914 86.66992188 C250.49354398 83.68722948 244.86819324 81.48617749 238.82836914 79.41992188 C237.83836914 72.98492187 237.83836914 72.98492187 236.82836914 66.41992188 C235.50836914 66.41992188 234.18836914 66.41992188 232.82836914 66.41992188 Z M-13.48754883 110.65063477 C-34.31775476 132.29693819 -51.23925667 155.55198393 -51.34521484 186.89355469 C-51.35190186 187.72383179 -51.35858887 188.55410889 -51.36547852 189.4095459 C-51.37948365 191.20680555 -51.39139196 193.00408251 -51.40142632 194.80136871 C-51.41795698 197.66327583 -51.44120582 200.52505795 -51.46632385 203.38690186 C-51.53671839 211.52251834 -51.59672719 219.65818911 -51.6484375 227.79394531 C-51.68060434 232.78063079 -51.72197897 237.76717611 -51.76863289 242.75374603 C-51.78444356 244.63678157 -51.79685894 246.51984931 -51.80554008 248.40293121 C-51.87772175 263.8533467 -52.48174183 279.35525509 -56.23413086 294.41992188 C-56.43675537 295.26022949 -56.63937988 296.10053711 -56.84814453 296.96630859 C-59.08960442 305.81514668 -62.12506373 314.39910018 -65.22460938 322.97851562 C-65.60544678 324.03425781 -65.98628418 325.09 -66.37866211 326.17773438 C-66.72388916 327.11762207 -67.06911621 328.05750977 -67.42480469 329.02587891 C-68.32052998 331.4792653 -68.32052998 331.4792653 -68.17163086 334.41992188 C-51.67163086 334.41992188 -35.17163086 334.41992188 -18.17163086 334.41992188 C-14.01889719 319.46406447 -14.01889719 319.46406447 -9.88525391 304.50292969 C-9.36030937 302.62610889 -8.83471835 300.74946874 -8.30834961 298.87304688 C-8.04300415 297.90028809 -7.77765869 296.9275293 -7.50427246 295.92529297 C-7.24069946 294.99185059 -6.97712646 294.0584082 -6.70556641 293.09667969 C-6.48128464 292.28837708 -6.25700287 291.48007446 -6.02592468 290.64727783 C-5.07130499 288.15834743 -3.9248543 286.42213918 -2.17163086 284.41992188 C0.21118164 283.36523438 0.21118164 283.36523438 2.95336914 282.54492188 C13.53607647 278.92893085 21.03490188 272.96073522 26.11352539 262.86523438 C29.92301329 253.88085072 29.95314634 245.44284457 29.93383789 235.80664062 C29.94304713 233.26765137 29.95435773 230.72866906 29.9675293 228.18969727 C29.97090207 227.53276508 29.97427485 226.8758329 29.97774982 226.19899368 C30.10667661 202.75826425 30.77218207 180.04220128 36.40698242 157.15649414 C36.97359219 153.47681342 36.64229367 150.70506587 34.64086914 147.54492188 C32.77517397 146.18982876 32.77517397 146.18982876 29.95336914 146.23242188 C22.75847285 148.96648247 19.22718817 160.38231911 15.99016762 166.94599533 C15.04797476 168.85622287 14.1005851 170.76379546 13.15190125 172.67080688 C11.14367613 176.70993046 9.14182719 180.7521944 7.14086914 184.79492188 C4.81013965 189.50364603 2.47678788 194.21103329 0.13670921 198.91511917 C-0.79607589 200.79364151 -1.72401029 202.67450787 -2.65177917 204.55551147 C-3.21609146 205.69074249 -3.78040375 206.82597351 -4.36181641 207.99560547 C-4.85747604 208.99739838 -5.35313568 209.99919128 -5.86381531 211.03134155 C-7.41601981 213.86627124 -8.40871557 215.15187056 -11.48413086 216.23242188 C-14.17163086 216.41992188 -14.17163086 216.41992188 -16.98413086 215.41992188 C-19.17163086 213.41992188 -19.17163086 213.41992188 -19.55529785 210.24694824 C-19.10963791 205.80155062 -17.46009595 202.92389915 -15.22045898 199.1875 C-10.15952363 189.88862353 -10.13146805 181.5155524 -10.39038086 171.13867188 C-10.40534797 169.34552568 -10.41671378 167.55234622 -10.42468262 165.75915527 C-10.45486656 161.09606599 -10.53312451 156.43505003 -10.62231445 151.77276611 C-10.70494668 146.9926761 -10.74085732 142.21224278 -10.78100586 137.43164062 C-10.8661629 128.09350245 -11.00224498 118.75688619 -11.17163086 109.41992188 C-12.35019605 109.30607751 -12.35019605 109.30607751 -13.48754883 110.65063477 Z " fill="#5743FF" transform="translate(144.171630859375,106.580078125)"/>
<path d="M0 0 C5.38434665 5.75999874 8.40758077 12.4632282 8.81640625 20.3671875 C8.40854585 28.30192611 5.39902704 35.32383981 -0.3125 40.875 C-6.95811258 45.58670416 -13.14813899 47.41036794 -21.3125 46.875 C-28.83493143 45.53522055 -34.30932961 42.71010635 -39.3125 36.875 C-44.11811058 29.28352821 -45.59183834 21.54164383 -43.88671875 12.65625 C-41.60531676 5.60209905 -36.6976752 -0.16580032 -30.125 -3.5625 C-19.37484627 -8.44495271 -9.69603726 -6.22009937 0 0 Z M-27.875 13.375 C-29.86215268 16.83091771 -29.89991021 20.02250444 -29.3125 23.875 C-28.03354942 26.81955734 -28.03354942 26.81955734 -26.3125 28.875 C-25.9825 28.875 -25.6525 28.875 -25.3125 28.875 C-25.3125 23.265 -25.3125 17.655 -25.3125 11.875 C-26.55326302 11.75957803 -26.55326302 11.75957803 -27.875 13.375 Z M-11.3125 11.875 C-11.3125 17.485 -11.3125 23.095 -11.3125 28.875 C-6.98801348 26.29161894 -6.98801348 26.29161894 -6.375 22.0625 C-6.02759107 17.97666889 -7.12972183 15.36744507 -9.3125 11.875 C-9.9725 11.875 -10.6325 11.875 -11.3125 11.875 Z " fill="#7629FF" transform="translate(397.3125,212.125)"/>
<path d="M0 0 C6.05267724 3.48398007 9.41168142 8.07064362 11.9375 14.5 C13.53831526 23.46456546 12.39235937 30.54082765 7.5 38.25 C2.21845404 43.86066307 -4.34303552 46.30259349 -11.9375 46.625 C-19.23081331 46.29856195 -25.11964185 44.35924516 -30.31640625 39.09765625 C-35.14279669 33.03850102 -36.92050632 27.31008544 -36.7578125 19.59375 C-35.9969266 13.43243002 -32.93146825 7.2574436 -28.4375 3 C-19.74536553 -3.06936275 -9.79765307 -4.33159399 0 0 Z " fill="#5446FF" transform="translate(387.4375,389)"/>
<path d="M0 0 C2.4375 2.0625 2.4375 2.0625 4 4 C6.26118705 2.95016316 7.97525665 2.02303691 9.8125 0.3125 C12 -1 12 -1 15.5625 -0.9375 C19 0 19 0 21 1.625 C22.47326389 5.12400175 21.97114747 7.37438276 21 11 C18.9375 13.4375 18.9375 13.4375 17 15 C18.03587181 17.23110851 19.00552411 19.00637397 20.625 20.875 C22.51480585 23.79560904 22.49800393 25.58511593 22 29 C19.93127298 32.02352411 18.72639431 32.85787938 15.125 33.5625 C10.83974998 32.791155 9.12829324 30.97932689 6 28 C3.76889149 29.03587181 1.99362603 30.00552411 0.125 31.625 C-2.79560904 33.51480585 -4.58511593 33.49800393 -8 33 C-11.02352411 30.93127298 -11.85787938 29.72639431 -12.5625 26.125 C-11.791155 21.83974998 -9.97932689 20.12829324 -7 17 C-8.03587181 14.76889149 -9.00552411 12.99362603 -10.625 11.125 C-12.53052874 8.18009194 -12.57326746 6.43960478 -12 3 C-8.26678625 -1.41197988 -5.41800721 -1.57614755 0 0 Z " fill="#5F3CFF" transform="translate(94,57)"/>
<path d="M0 0 C3.36344489 2.48602449 4.80057749 3.91425523 5.5625 8.0625 C4.86895034 11.68437046 3.96102497 12.83925205 1 15 C-2.19842721 16.23016431 -3.48647593 16.20302115 -6.6875 14.9375 C-9.66998197 12.43866376 -10.39814123 10.83684965 -11 7 C-8.6702694 0.82621391 -6.6121491 -0.77789989 0 0 Z " fill="#4F4AFF" transform="translate(75,124)"/>
<path d="M0 0 C2.4375 1.5625 2.4375 1.5625 4 4 C4.55802097 7.90614682 4.58392818 10.05111671 2.5 13.4375 C-1.24892004 15.78057502 -3.61035762 15.48773804 -8 15 C-10 14 -10 14 -11 12 C-11.75471698 5.20754717 -11.75471698 5.20754717 -9.4375 1.5 C-6.05111671 -0.58392818 -3.90614682 -0.55802097 0 0 Z " fill="#7826FF" transform="translate(267,90)"/>
</svg>
