<?xml version="1.0" encoding="UTF-8"?>
<svg version="1.1" xmlns="http://www.w3.org/2000/svg" width="512" height="512">
<path d="M0 0 C1.06367294 0.00222061 2.12734589 0.00444122 3.22325134 0.00672913 C5.02500572 0.00684242 5.02500572 0.00684242 6.86315918 0.00695801 C8.17042465 0.01211929 9.47769012 0.01728058 10.8245697 0.02259827 C12.16835477 0.02446253 13.51214052 0.02588639 14.85592651 0.02688599 C18.39873622 0.0307105 21.94150515 0.0405402 25.48429871 0.05158997 C29.09706572 0.06180552 32.7098393 0.06638392 36.32261658 0.07142639 C43.41573225 0.08216254 50.50882019 0.09923816 57.60191345 0.12025452 C58.24312183 1.55619207 58.88360726 2.99245247 59.52378845 4.42884827 C60.05891052 5.62852234 60.05891052 5.62852234 60.60484314 6.85243225 C61.66072069 9.25401075 62.65486781 11.67371994 63.60191345 14.12025452 C68.75545143 13.69079302 72.25083474 12.49461873 76.7073822 9.86244202 C79.17951573 8.89397733 80.11754586 9.21723453 82.60191345 10.12025452 C84.60821533 11.72541809 84.60821533 11.72541809 86.74375916 13.8263092 C87.94939262 15.00323334 87.94939262 15.00323334 89.17938232 16.20393372 C90.46554695 17.48509064 90.46554695 17.48509064 91.7776947 18.79212952 C93.10452522 20.10398224 93.10452522 20.10398224 94.4581604 21.44233704 C96.32554883 23.29453422 98.18887921 25.15083036 100.04844666 27.01087952 C102.43211297 29.39485129 104.83577783 31.75748995 107.2452364 34.11535263 C109.54034206 36.36910933 111.81390386 38.64439544 114.0901947 40.91712952 C114.95775894 41.76313721 115.82532318 42.6091449 116.71917725 43.48078918 C117.50717209 44.27801392 118.29516693 45.07523865 119.10704041 45.8966217 C120.15816765 46.94133636 120.15816765 46.94133636 121.23052979 48.00715637 C122.60191345 50.12025452 122.60191345 50.12025452 122.38113403 52.75532532 C121.39315678 55.7538296 119.99262435 58.32028083 118.4417572 61.05775452 C117.43680111 63.52573971 117.45981974 65.48006167 117.60191345 68.12025452 C118.52874939 68.46959045 119.45558533 68.81892639 120.4105072 69.17884827 C121.60804626 69.63388733 122.80558533 70.08892639 124.03941345 70.55775452 C125.23437439 71.01021545 126.42933533 71.46267639 127.6605072 71.92884827 C130.60191345 73.12025452 130.60191345 73.12025452 131.60191345 74.12025452 C131.69577726 75.99206392 131.71935149 77.86743512 131.71543884 79.74159241 C131.71536331 80.94276199 131.71528778 82.14393158 131.71520996 83.38150024 C131.71004868 84.68876572 131.70488739 85.99603119 131.6995697 87.34291077 C131.69770544 88.68669584 131.69628157 90.03048159 131.69528198 91.37426758 C131.69145747 94.91707728 131.68162777 98.45984621 131.670578 102.00263977 C131.66036245 105.61540678 131.65578405 109.22818036 131.65074158 112.84095764 C131.64000543 119.93407332 131.62292981 127.02716126 131.60191345 134.12025452 C130.1659759 134.76146289 128.7297155 135.40194833 127.2933197 136.04212952 C126.49353699 136.39887756 125.69375427 136.75562561 124.86973572 137.1231842 C122.46815722 138.17906176 120.04844803 139.17320887 117.60191345 140.12025452 C118.03137495 145.27379249 119.22754924 148.7691758 121.85972595 153.22572327 C122.83321282 155.7106766 122.58558533 156.6477486 121.60191345 159.12025452 C119.5944376 160.81959343 119.5944376 160.81959343 116.98535156 162.59263611 C108.41735314 169.10161453 100.84474731 175.77904279 99.00375777 186.81565893 C97.70390299 197.83195714 98.09801555 208.98723305 98.40243793 220.05187845 C98.52186834 225.25797509 98.51661086 230.46400235 98.52453613 235.67124939 C98.55725712 245.51220347 98.69306007 255.34869879 98.87029845 265.18800437 C99.12597939 279.62763044 99.23051447 294.06854152 99.32820988 308.50997734 C99.34285075 310.64877714 99.35751142 312.78757681 99.37219238 314.92637634 C99.3791326 315.97107491 99.38607282 317.01577348 99.39322335 318.09212959 C99.4378271 324.26915266 99.5143132 330.44472986 99.61981189 336.6210072 C99.68322855 340.46400511 99.73114385 344.30711045 99.77658463 348.1503582 C99.80147162 349.92291331 99.83351267 351.69538568 99.87348747 353.46766472 C100.18666602 367.50471288 98.66826469 378.57550242 88.60191345 389.12025452 C78.69659774 398.57617972 68.23874324 400.73040425 54.86875916 400.57435608 C53.52725254 400.57322497 52.18574347 400.57386659 50.84423828 400.5761261 C47.23734413 400.57726392 43.63099267 400.55390798 40.02422357 400.52583027 C36.24197733 400.50065925 32.45971576 400.49846234 28.67739868 400.49372864 C21.53070409 400.48134462 14.38425711 400.44858573 7.23767108 400.40833068 C-0.90507839 400.36346966 -9.04784029 400.34159007 -17.19068277 400.32154894 C-33.92662848 400.2798484 -50.66232581 400.20958645 -67.39808655 400.12025452 C-66.80161812 402.17458866 -66.19555614 404.22613858 -65.58558655 406.27650452 C-65.24914124 407.41925842 -64.91269592 408.56201233 -64.5660553 409.73939514 C-61.84291639 417.621926 -56.68626822 426.68899661 -49.39808655 431.12025452 C-46.28941819 431.55991756 -46.28941819 431.55991756 -42.8316803 431.49134827 C-40.89518616 431.51745178 -40.89518616 431.51745178 -38.91957092 431.54408264 C-36.88818963 431.55406785 -34.85698136 431.55777271 -32.82557678 431.55604553 C-19.5139617 431.58051841 -9.22244833 433.74161047 0.60191345 443.12025452 C9.01068514 451.928651 12.25201841 461.30075735 12.07041931 473.40736389 C11.70140645 481.43122584 9.45493272 485.62068938 3.66441345 490.99525452 C-2.42349909 496.19963303 -7.87252734 496.41236039 -15.58834839 496.38768005 C-16.62419829 496.39221117 -17.66004818 496.39674228 -18.72728747 496.4014107 C-22.20329235 496.41408562 -25.67914117 496.41243231 -29.15516663 496.41078186 C-31.64535728 496.41676517 -34.13554608 496.42357026 -36.62573242 496.43113708 C-42.69107265 496.44698659 -48.75635136 496.45324635 -54.82170657 496.45436184 C-59.75287478 496.45531264 -64.68403017 496.45942454 -69.61519432 496.46576309 C-83.60086699 496.48337407 -97.58650899 496.49260223 -111.57219283 496.49110214 C-112.70284493 496.49098228 -112.70284493 496.49098228 -113.8563385 496.49085999 C-114.61102866 496.49077822 -115.36571882 496.49069646 -116.14327838 496.49061222 C-128.37227699 496.48979944 -140.60115239 496.50893558 -152.83011536 496.53713672 C-165.39153891 496.56587558 -177.95290239 496.57967645 -190.51435965 496.57794917 C-197.5647287 496.57728559 -204.61496859 496.58276342 -211.665308 496.60430527 C-218.29651252 496.62443685 -224.927491 496.6238331 -231.55872536 496.609272 C-233.99194741 496.60717896 -236.42518639 496.61191416 -238.85837936 496.62399292 C-242.1815322 496.63942049 -245.50374138 496.63015264 -248.82687378 496.61473083 C-249.78846132 496.62501796 -250.75004885 496.63530509 -251.74077541 496.64590394 C-258.90100905 496.57253619 -264.20904676 494.91483119 -269.64027405 490.15541077 C-270.17910217 489.5044342 -270.7179303 488.85345764 -271.27308655 488.18275452 C-271.82738342 487.53435608 -272.3816803 486.88595764 -272.95277405 486.21791077 C-277.67742894 479.3607765 -277.17241835 471.11508183 -276.39808655 463.12025452 C-274.20723902 452.45463152 -267.72479262 443.99096818 -258.93910217 437.73475647 C-249.20706694 431.55124869 -239.27849147 431.58173358 -228.06385803 431.70497131 C-219.39032352 432.15980658 -219.39032352 432.15980658 -211.7066803 428.90541077 C-204.51783279 420.23257104 -200.08073911 411.03383837 -197.39808655 400.12025452 C-198.08885442 400.12394169 -198.77962229 400.12762886 -199.49132252 400.13142776 C-216.33576246 400.21994626 -233.18012826 400.28604529 -250.02474689 400.3275032 C-258.17084443 400.34808726 -266.31678625 400.37612783 -274.46278381 400.42201233 C-281.56673406 400.46200799 -288.67057148 400.48771751 -295.7746312 400.4966085 C-299.53269978 400.50180184 -303.29044572 400.51392002 -307.04841042 400.54317474 C-310.59349437 400.5705458 -314.13812614 400.5786564 -317.68330574 400.57268524 C-319.58850533 400.57429164 -321.4936569 400.59570009 -323.39872742 400.61793518 C-335.32215112 400.56138852 -344.70082569 397.42293265 -353.39808655 389.12025452 C-362.36062619 379.73177239 -365.01035905 369.59396781 -364.90602112 356.86195374 C-364.91226108 355.6760861 -364.91850104 354.49021847 -364.9249301 353.26841545 C-364.93803869 350.00784164 -364.93343796 346.74787297 -364.92098522 343.48731518 C-364.91188267 339.95894492 -364.92593007 336.43065244 -364.93690491 332.90229797 C-364.95463956 326.00253278 -364.95087281 319.10294218 -364.93925434 312.2031703 C-364.93020031 306.59281456 -364.92900452 300.98250756 -364.93334961 295.37214661 C-364.93396254 294.57195819 -364.93457547 293.77176977 -364.93520698 292.94733322 C-364.93648595 291.32148312 -364.93778281 289.69563304 -364.93909734 288.06978297 C-364.95048833 272.84407757 -364.93741274 257.61846868 -364.91589588 242.39277911 C-364.89802623 229.34420698 -364.90113076 216.29577721 -364.91957092 203.24720764 C-364.94100386 188.07391837 -364.94938984 172.90071357 -364.93712187 157.72741127 C-364.93584775 156.10772834 -364.93459026 154.48804539 -364.93334961 152.86836243 C-364.93273251 152.07156315 -364.93211541 151.27476387 -364.9314796 150.45381916 C-364.92803396 144.85382034 -364.93383804 139.25387536 -364.94326782 133.65388489 C-364.95451617 126.82415005 -364.95138845 119.99459898 -364.93014485 113.16488504 C-364.91967232 109.68393504 -364.915447 106.2032908 -364.92874146 102.72234344 C-364.93970694 98.94077785 -364.9259192 95.16006678 -364.90602112 91.3785553 C-364.91494401 90.28972486 -364.92386689 89.20089443 -364.93306017 88.07906914 C-364.81681229 76.65261185 -361.32015187 67.41881403 -353.39808655 59.12025452 C-345.36437908 51.45102527 -336.24579379 47.61228943 -325.11478394 47.75491583 C-324.12608066 47.7885968 -323.13737737 47.82227777 -322.11871338 47.85697937 C-321.03765062 47.87628962 -319.95658786 47.89559987 -318.84276563 47.91549528 C-315.2474982 47.9837568 -311.65358884 48.08097524 -308.05897522 48.17738342 C-305.46884252 48.23090913 -302.87865984 48.28206019 -300.28843689 48.33102417 C-296.153102 48.40970561 -292.01785091 48.49033911 -287.88274896 48.5805285 C-277.60331268 48.80393445 -267.32440506 48.95744049 -257.04318237 49.06980896 C-256.2959803 49.07810075 -255.54877823 49.08639255 -254.77893367 49.09493561 C-248.62697357 49.16305893 -242.47498482 49.2284463 -236.322991 49.29344252 C-230.7907762 49.35214888 -225.25859961 49.41359863 -219.72645569 49.47865295 C-218.5440251 49.49251174 -218.5440251 49.49251174 -217.33770702 49.50665049 C-204.63185417 49.65934424 -191.93138729 49.93498886 -179.22874745 50.25371332 C-166.11793923 50.57941846 -153.01071951 50.75514303 -139.8959406 50.80196893 C-132.55680126 50.83253512 -125.23180755 50.92875918 -117.89731407 51.20093155 C-80.97296158 52.93355055 -80.97296158 52.93355055 -49.50561625 35.82507694 C-42.84367247 29.28647184 -36.71095153 22.21897547 -31.17179883 14.70333457 C-30.60936124 13.95474496 -30.04692366 13.20615535 -29.46744251 12.43488121 C-28.99099098 11.76902327 -28.51453945 11.10316533 -28.02364999 10.41712987 C-26.39808655 9.12025452 -26.39808655 9.12025452 -23.83515805 9.35229933 C-20.79107387 10.31153267 -18.22660961 11.71336948 -15.46058655 13.28041077 C-12.99260136 14.28536686 -11.0382794 14.26234823 -8.39808655 14.12025452 C-8.04875061 13.19341858 -7.69941467 12.26658264 -7.3394928 11.31166077 C-6.88445374 10.1141217 -6.42941467 8.91658264 -5.96058655 7.68275452 C-5.28189514 5.89031311 -5.28189514 5.89031311 -4.5894928 4.06166077 C-3.00537499 0.15070762 -3.00537499 0.15070762 0 0 Z M9.60191345 16.12025452 C8.28191345 19.75025452 6.96191345 23.38025452 5.60191345 27.12025452 C2.3948822 29.54212952 2.3948822 29.54212952 -1.21058655 30.87025452 C-2.39265686 31.33947327 -3.57472717 31.80869202 -4.7926178 32.29212952 C-9.43527627 33.35848227 -13.30871197 33.19479001 -17.58558655 30.99525452 C-19.33039825 29.96584875 -19.33039825 29.96584875 -21.17030334 30.2559967 C-24.36167504 31.49407405 -26.46761383 33.70228987 -28.8551178 36.07337952 C-29.36233871 36.57061523 -29.86955963 37.06785095 -30.39215088 37.58015442 C-31.45918047 38.63202526 -32.52220021 39.68797726 -33.58143616 40.74769592 C-35.20702449 42.36670688 -36.85508201 43.96021442 -38.50550842 45.55384827 C-39.54017639 46.57971672 -40.57342982 47.60701423 -41.6051178 48.63587952 C-42.34868279 49.34710968 -42.34868279 49.34710968 -43.10726929 50.07270813 C-44.65783785 51.58763762 -44.65783785 51.58763762 -46.39808655 54.12025452 C-46.26057775 57.00045764 -45.74372923 58.54418338 -44.27308655 60.99525452 C-42.234257 65.9466977 -44.65790351 71.48569897 -46.27308655 76.30775452 C-46.60050842 77.3119342 -46.9279303 78.31611389 -47.26527405 79.35072327 C-49.39808655 82.12025452 -49.39808655 82.12025452 -60.39808655 86.12025452 C-60.39808655 98.00025452 -60.39808655 109.88025452 -60.39808655 122.12025452 C-56.76808655 123.44025452 -53.13808655 124.76025452 -49.39808655 126.12025452 C-46.97621155 129.32728577 -46.97621155 129.32728577 -45.64808655 132.93275452 C-44.94425842 134.70585999 -44.94425842 134.70585999 -44.22621155 136.51478577 C-43.15985879 141.15744423 -43.32355105 145.03087994 -45.52308655 149.30775452 C-46.55249232 151.05256621 -46.55249232 151.05256621 -46.26234436 152.89247131 C-45.02426701 156.08384301 -42.81605119 158.1897818 -40.44496155 160.57728577 C-39.69910797 161.33811714 -39.69910797 161.33811714 -38.93818665 162.11431885 C-37.8863158 163.18134844 -36.8303638 164.24436818 -35.77064514 165.30360413 C-34.15163419 166.92919246 -32.55812664 168.57724998 -30.9644928 170.22767639 C-29.93862434 171.26234435 -28.91132684 172.29559779 -27.88246155 173.32728577 C-27.40830811 173.82299576 -26.93415466 174.31870575 -26.44563293 174.82943726 C-24.93070344 176.38000582 -24.93070344 176.38000582 -22.39808655 178.12025452 C-19.51788342 177.98274571 -17.97415769 177.4658972 -15.52308655 175.99525452 C-10.57164336 173.95642497 -5.03264209 176.38007148 -0.21058655 177.99525452 C0.79359314 178.32267639 1.79777283 178.65009827 2.8323822 178.98744202 C5.60191345 181.12025452 5.60191345 181.12025452 9.60191345 192.12025452 C21.48191345 192.12025452 33.36191345 192.12025452 45.60191345 192.12025452 C46.92191345 188.49025452 48.24191345 184.86025452 49.60191345 181.12025452 C52.8089447 178.69837952 52.8089447 178.69837952 56.41441345 177.37025452 C57.59648376 176.90103577 58.77855408 176.43181702 59.9964447 175.94837952 C64.63910317 174.88202676 68.51253888 175.04571902 72.78941345 177.24525452 C74.53422515 178.27466028 74.53422515 178.27466028 76.37413025 177.98451233 C79.56550195 176.74643498 81.67144074 174.53821916 84.0589447 172.16712952 C84.81977608 171.42127594 84.81977608 171.42127594 85.59597778 170.66035461 C86.66300737 169.60848377 87.72602712 168.55253177 88.78526306 167.49281311 C90.4108514 165.87380216 92.05890892 164.28029461 93.70933533 162.68666077 C94.74400329 161.66079231 95.77725672 160.63349481 96.8089447 159.60462952 C97.30465469 159.13047607 97.80036469 158.65632263 98.31109619 158.1678009 C99.86166475 156.65287141 99.86166475 156.65287141 101.60191345 154.12025452 C101.46440465 151.24005139 100.94755613 149.69632565 99.47691345 147.24525452 C97.43808391 142.29381133 99.86173041 136.75481006 101.47691345 131.93275452 C101.80433533 130.92857483 102.1317572 129.92439514 102.46910095 128.88978577 C104.60191345 126.12025452 104.60191345 126.12025452 115.60191345 122.12025452 C115.60191345 110.24025452 115.60191345 98.36025452 115.60191345 86.12025452 C111.97191345 84.80025452 108.34191345 83.48025452 104.60191345 82.12025452 C102.18003845 78.91322327 102.18003845 78.91322327 100.85191345 75.30775452 C100.3826947 74.1256842 99.91347595 72.94361389 99.43003845 71.72572327 C98.36368569 67.0830648 98.52737796 63.20962909 100.72691345 58.93275452 C101.75631922 57.18794282 101.75631922 57.18794282 101.46617126 55.34803772 C100.22809392 52.15666602 98.01987809 50.05072723 95.64878845 47.66322327 C94.90293488 46.90239189 94.90293488 46.90239189 94.14201355 46.12619019 C93.09014271 45.0591606 92.0341907 43.99614085 90.97447205 42.93690491 C89.35546109 41.31131657 87.76195355 39.66325905 86.1683197 38.01283264 C85.14245125 36.97816468 84.11515374 35.94491125 83.08628845 34.91322327 C82.61213501 34.41751328 82.13798157 33.92180328 81.64945984 33.41107178 C80.13453035 31.86050322 80.13453035 31.86050322 77.60191345 30.12025452 C74.72171033 30.25776332 73.17798459 30.77461183 70.72691345 32.24525452 C65.77547027 34.28408406 60.236469 31.86043756 55.41441345 30.24525452 C53.90814392 29.7541217 53.90814392 29.7541217 52.3714447 29.25306702 C49.60191345 27.12025452 49.60191345 27.12025452 45.60191345 16.12025452 C33.72191345 16.12025452 21.84191345 16.12025452 9.60191345 16.12025452 Z M-225.77308655 114.74525452 C-227.88515161 117.83211883 -228.010038 119.44854582 -227.39808655 123.12025452 C-225.89808655 125.62025452 -225.89808655 125.62025452 -223.39808655 127.12025452 C-219.72637785 127.73220597 -218.10995086 127.60731957 -215.02308655 125.49525452 C-212.91102149 122.4083902 -212.7861351 120.79196321 -213.39808655 117.12025452 C-214.89808655 114.62025452 -214.89808655 114.62025452 -217.39808655 113.12025452 C-221.06979524 112.50830307 -222.68622223 112.63318946 -225.77308655 114.74525452 Z M-113.77308655 170.74525452 C-115.88515161 173.83211883 -116.010038 175.44854582 -115.39808655 179.12025452 C-113.89808655 181.62025452 -113.89808655 181.62025452 -111.39808655 183.12025452 C-107.72637785 183.73220597 -106.10995086 183.60731957 -103.02308655 181.49525452 C-100.91102149 178.4083902 -100.7861351 176.79196321 -101.39808655 173.12025452 C-102.89808655 170.62025452 -102.89808655 170.62025452 -105.39808655 169.12025452 C-109.06979524 168.50830307 -110.68622223 168.63318946 -113.77308655 170.74525452 Z M-342.64808655 73.55775452 C-348.51529506 80.75772319 -348.5476855 88.73354201 -348.51834106 97.6493988 C-348.51919708 98.59961914 -348.5200531 99.54983948 -348.52093506 100.52885437 C-348.5225885 103.71868269 -348.51706941 106.90845835 -348.51161194 110.09828186 C-348.51130558 112.42186799 -348.51143914 114.74545421 -348.5119772 117.0690403 C-348.51220299 123.2925863 -348.50640626 129.51611308 -348.49936676 135.73965454 C-348.4936727 141.5791683 -348.49340369 147.41867738 -348.49269104 153.25819397 C-348.48744329 170.3372167 -348.47348214 187.41623585 -348.46058655 204.49525452 C-348.43996155 242.65150452 -348.41933655 280.80775452 -348.39808655 320.12025452 C-205.83808655 320.12025452 -63.27808655 320.12025452 83.60191345 320.12025452 C83.60191345 279.53025452 83.60191345 238.94025452 83.60191345 197.12025452 C81.95191345 197.45025452 80.30191345 197.78025452 78.60191345 198.12025452 C76.10191345 197.12416077 76.10191345 197.12416077 73.60191345 195.68275452 C70.02668924 193.63258688 67.74339833 192.81703866 63.60191345 193.12025452 C62.97570429 194.51554581 62.35100714 195.91151572 61.72691345 197.30775452 C61.37886658 198.0850592 61.0308197 198.86236389 60.67222595 199.66322327 C59.59868146 202.12767394 58.60025794 204.62439331 57.60191345 207.12025452 C37.80191345 207.12025452 18.00191345 207.12025452 -2.39808655 207.12025452 C-4.04808655 202.83025452 -5.69808655 198.54025452 -7.39808655 194.12025452 C-7.72808655 193.79025452 -8.05808655 193.46025452 -8.39808655 193.12025452 C-13.55877379 193.43621496 -17.06283289 194.75523708 -21.5035553 197.37806702 C-23.93448029 198.33038815 -24.96440582 197.99063548 -27.39808655 197.12025452 C-28.6844551 195.58747751 -29.96579544 194.04973438 -31.20373535 192.47758484 C-35.30415568 187.50012706 -39.05997154 183.98744647 -45.57728577 182.90638733 C-50.48304118 182.44934755 -55.35477358 182.4715897 -60.27528381 182.64515686 C-63.35846063 182.74600269 -66.42505091 182.72727783 -69.50941467 182.69447327 C-71.48151379 182.71741896 -73.45354841 182.74712517 -75.4254303 182.78431702 C-76.33800095 182.77864716 -77.25057159 182.77297729 -78.1907959 182.76713562 C-82.12829822 182.95646238 -84.47923468 183.11781748 -87.21940613 186.10725403 C-88.81086816 188.47277843 -88.81086816 188.47277843 -90.07608032 190.90550232 C-92.64468441 195.20867536 -96.69255774 197.55174492 -101.39808655 199.12025452 C-103.66727903 199.21609619 -105.93937614 199.25009203 -108.21058655 199.24525452 C-109.41328186 199.24783264 -110.61597717 199.25041077 -111.8551178 199.25306702 C-115.39808655 199.12025452 -115.39808655 199.12025452 -118.42933655 198.24525452 C-121.83063754 198.10204184 -122.1986021 198.41716479 -124.6598053 200.54994202 C-125.81774542 201.6822321 -126.95896898 202.83179458 -128.08558655 203.99525452 C-129.3121412 205.20104228 -130.5413377 206.40414826 -131.77308655 207.60462952 C-132.38023499 208.20210999 -132.98738342 208.79959045 -133.6129303 209.41517639 C-136.95629449 212.60856473 -140.57277237 215.44046964 -144.1910553 218.31556702 C-144.91937561 218.91111389 -145.64769592 219.50666077 -146.39808655 220.12025452 C-146.99363342 220.5366217 -147.5891803 220.95298889 -148.20277405 221.38197327 C-150.18138632 224.25936693 -149.52522747 227.46290079 -149.33558655 230.80775452 C-149.1718102 237.10435769 -149.24811089 242.12086864 -153.39808655 247.12025452 C-157.86370465 251.81867735 -162.07849544 254.77917347 -168.6676178 255.45619202 C-176.94180652 255.54741791 -182.9823667 255.29835715 -189.14027405 249.47181702 C-195.07564764 242.96846509 -195.83028771 237.26865532 -195.7301178 228.58119202 C-195.27751537 223.8634773 -193.88568007 221.11548047 -191.39808655 217.12025452 C-190.22608312 213.60424423 -190.58895136 212.94104379 -191.90174866 209.59901428 C-192.43372108 208.22465965 -192.43372108 208.22465965 -192.97644043 206.82254028 C-193.37210709 205.82895004 -193.76777374 204.8353598 -194.1754303 203.81166077 C-194.57959671 202.77573288 -194.98376312 201.73980499 -195.400177 200.67248535 C-196.70322798 197.339069 -198.01928185 194.01095643 -199.33558655 190.68275452 C-200.18864217 188.50534986 -201.04086483 186.32761868 -201.89222717 184.14955139 C-203.97618718 178.82635944 -206.07399461 173.50879288 -208.18000793 168.19429016 C-208.98930072 166.15189746 -209.79745498 164.10905323 -210.60444641 162.06575012 C-211.72162194 159.23773063 -212.84237801 156.41116098 -213.9644928 153.58509827 C-214.29883835 152.73814896 -214.6331839 151.89119965 -214.97766113 151.01858521 C-216.23621578 147.29651713 -216.23621578 147.29651713 -218.39808655 144.12025452 C-221.90520021 142.71740905 -224.69051318 142.30263431 -228.39808655 143.12025452 C-231.95227129 146.40061917 -234.4924668 150.16689497 -237.13050842 154.20033264 C-238.80189856 156.7318835 -240.57477495 159.18280769 -242.35389709 161.63929749 C-243.62518001 163.40101118 -244.87362944 165.17732095 -246.1207428 166.95619202 C-248.0193013 169.59398341 -250.00363787 172.06710921 -252.08558655 174.55775452 C-254.10060261 177.2500869 -254.41329552 177.7400303 -254.27308655 181.24525452 C-253.98433655 182.52400452 -253.69558655 183.80275452 -253.39808655 185.12025452 C-252.29921098 200.70938757 -252.29921098 200.70938757 -257.39808655 207.12025452 C-261.84940986 211.82473366 -266.08873171 214.78022523 -272.6676178 215.45619202 C-280.92254095 215.5472055 -287.04087667 215.33092147 -293.14027405 209.43666077 C-295.84379077 206.4291601 -297.56691043 203.78260674 -299.39808655 200.12025452 C-305.00808655 200.12025452 -310.61808655 200.12025452 -316.39808655 200.12025452 C-316.39808655 229.16025452 -316.39808655 258.20025452 -316.39808655 288.12025452 C-226.63808655 288.12025452 -136.87808655 288.12025452 -44.39808655 288.12025452 C-44.39808655 293.40025452 -44.39808655 298.68025452 -44.39808655 304.12025452 C-139.43808655 304.12025452 -234.47808655 304.12025452 -332.39808655 304.12025452 C-332.39808655 230.20025452 -332.39808655 156.28025452 -332.39808655 80.12025452 C-327.11808655 80.12025452 -321.83808655 80.12025452 -316.39808655 80.12025452 C-316.39808655 114.44025452 -316.39808655 148.76025452 -316.39808655 184.12025452 C-310.78808655 184.12025452 -305.17808655 184.12025452 -299.39808655 184.12025452 C-296.41451987 180.73887894 -295.17730959 178.9498833 -293.39808655 175.12025452 C-290.27926321 172.15356891 -287.50399101 170.38184527 -283.39808655 169.12025452 C-280.99834281 169.30400632 -278.60214711 169.5376197 -276.21058655 169.80775452 C-271.79365596 170.02337153 -269.05376774 169.67084708 -265.54652405 166.72572327 C-263.30662471 163.99052407 -261.42475385 161.03872954 -259.58509827 158.02406311 C-257.98888243 155.46394566 -256.2286719 153.04124066 -254.45326233 150.60340881 C-253.17415608 148.84362085 -251.92355024 147.06616256 -250.6754303 145.28431702 C-248.7768718 142.64652562 -246.79253523 140.17339982 -244.71058655 137.68275452 C-242.69557049 134.99042214 -242.38287758 134.50047873 -242.52308655 130.99525452 C-242.81183655 129.71650452 -243.10058655 128.43775452 -243.39808655 127.12025452 C-244.49696212 111.53112146 -244.49696212 111.53112146 -239.39808655 105.12025452 C-234.94676323 100.41577537 -230.70744139 97.46028381 -224.1285553 96.78431702 C-215.85436658 96.69309112 -209.81380639 96.94215188 -203.65589905 102.76869202 C-197.72052546 109.27204394 -196.96588539 114.97185371 -197.0660553 123.65931702 C-197.51865773 128.37703173 -198.91049303 131.12502856 -201.39808655 135.12025452 C-202.57008998 138.63626481 -202.20722173 139.29946524 -200.89442444 142.64149475 C-200.53977615 143.55773117 -200.18512787 144.47396759 -199.81973267 145.41796875 C-199.42406601 146.41155899 -199.02839935 147.40514923 -198.6207428 148.42884827 C-198.21657639 149.46477615 -197.81240997 150.50070404 -197.39599609 151.56802368 C-196.09294512 154.90144004 -194.77689125 158.22955261 -193.46058655 161.55775452 C-192.60753092 163.73515917 -191.75530826 165.91289036 -190.90394592 168.09095764 C-188.81998591 173.4141496 -186.72217848 178.73171615 -184.61616516 184.04621887 C-183.80687237 186.08861158 -182.99871811 188.1314558 -182.19172668 190.17475891 C-181.07455116 193.0027784 -179.95379509 195.82934806 -178.8316803 198.65541077 C-178.33016197 199.92583473 -178.33016197 199.92583473 -177.81851196 201.22192383 C-176.55995732 204.9439919 -176.55995732 204.9439919 -174.39808655 208.12025452 C-169.49401798 209.80582071 -164.56061132 211.1074763 -159.39808655 210.12025452 C-154.45881166 207.41930641 -150.78899271 202.95444947 -147.03822327 198.84144592 C-144.6105373 196.293785 -141.96915109 194.18108161 -139.21058655 191.99525452 C-137.59811019 190.71397645 -135.99246879 189.42397946 -134.39808655 188.12025452 C-133.80253967 187.70388733 -133.2069928 187.28752014 -132.59339905 186.85853577 C-130.61478678 183.9811421 -131.27094563 180.77760824 -131.46058655 177.43275452 C-131.6243629 171.13615134 -131.5480622 166.1196404 -127.39808655 161.12025452 C-122.93246845 156.42183168 -118.71767765 153.46133556 -112.1285553 152.78431702 C-103.87363215 152.69330353 -97.75529643 152.90958757 -91.65589905 158.80384827 C-88.95238232 161.81134893 -87.22926266 164.45790229 -85.39808655 168.12025452 C-76.15808655 168.12025452 -66.91808655 168.12025452 -57.39808655 168.12025452 C-61.77181216 163.0033205 -61.77181216 163.0033205 -66.39808655 158.12025452 C-66.29937231 154.66525607 -64.91438082 152.11432508 -63.33558655 149.12025452 C-61.6819224 145.96814379 -60.94488534 143.74586415 -61.39808655 140.12025452 C-62.79337784 139.49404535 -64.18934776 138.8693482 -65.58558655 138.24525452 C-66.36289124 137.89720764 -67.14019592 137.54916077 -67.9410553 137.19056702 C-70.40550597 136.11702253 -72.90222534 135.118599 -75.39808655 134.12025452 C-75.39808655 114.32025452 -75.39808655 94.52025452 -75.39808655 74.12025452 C-71.10808655 72.47025452 -66.81808655 70.82025452 -62.39808655 69.12025452 C-62.06808655 67.47025452 -61.73808655 65.82025452 -61.39808655 64.12025452 C-94.74953071 64.07445947 -128.10096704 64.03922636 -161.45243567 64.01812386 C-165.39143198 64.0156225 -169.33042822 64.01303385 -173.26942444 64.01039124 C-174.05359533 64.00986661 -174.83776622 64.00934199 -175.64569987 64.00880148 C-188.33665411 64.00010298 -201.0275902 63.98433606 -213.71853369 63.96594892 C-226.74422895 63.94723442 -239.76991473 63.93613451 -252.79562289 63.93207753 C-260.83075072 63.92933569 -268.86582725 63.92068114 -276.90093929 63.90442158 C-283.06614851 63.89258271 -289.23131875 63.8913471 -295.39653778 63.89403915 C-297.92286304 63.89348914 -300.44919025 63.88951365 -302.97550392 63.88184357 C-306.42750671 63.87187748 -309.87929086 63.87429188 -313.33129883 63.87974548 C-314.32840266 63.8739198 -315.32550649 63.86809412 -316.35282558 63.8620919 C-327.02858409 63.9076053 -335.22056671 65.32484096 -342.64808655 73.55775452 Z M-281.77308655 186.74525452 C-283.88515161 189.83211883 -284.010038 191.44854582 -283.39808655 195.12025452 C-281.89808655 197.62025452 -281.89808655 197.62025452 -279.39808655 199.12025452 C-275.72637785 199.73220597 -274.10995086 199.60731957 -271.02308655 197.49525452 C-268.91102149 194.4083902 -268.7861351 192.79196321 -269.39808655 189.12025452 C-270.89808655 186.62025452 -270.89808655 186.62025452 -273.39808655 185.12025452 C-277.06979524 184.50830307 -278.68622223 184.63318946 -281.77308655 186.74525452 Z M-177.77308655 226.74525452 C-179.88515161 229.83211883 -180.010038 231.44854582 -179.39808655 235.12025452 C-177.89808655 237.62025452 -177.89808655 237.62025452 -175.39808655 239.12025452 C-171.72637785 239.73220597 -170.10995086 239.60731957 -167.02308655 237.49525452 C-164.91102149 234.4083902 -164.7861351 232.79196321 -165.39808655 229.12025452 C-166.89808655 226.62025452 -166.89808655 226.62025452 -169.39808655 225.12025452 C-173.06979524 224.50830307 -174.68622223 224.63318946 -177.77308655 226.74525452 Z M-348.39808655 336.12025452 C-349.88204064 356.7447871 -349.88204064 356.7447871 -342.39808655 375.12025452 C-334.99613985 382.46933017 -328.06027258 384.24258663 -317.68786907 384.24888897 C-316.70902578 384.25151853 -316.70902578 384.25151853 -315.71040788 384.2542012 C-313.52658271 384.25884834 -311.34282449 384.25639903 -309.15899658 384.25396729 C-307.57630859 384.2558359 -305.99362107 384.25813681 -304.41093427 384.26083261 C-300.06365627 384.2669507 -295.71639751 384.266817 -291.36911619 384.26563823 C-286.67984112 384.26543423 -281.99057224 384.27095295 -277.30130005 384.2756958 C-268.11487773 384.28400293 -258.92846183 384.28675067 -249.74203607 384.28730818 C-242.2751495 384.2877833 -234.80826506 384.28983787 -227.34137917 384.2930088 C-206.17280704 384.30181548 -185.00423999 384.30642815 -163.83566602 384.30567833 C-162.12379197 384.3056184 -162.12379197 384.3056184 -160.37733459 384.30555725 C-159.23469233 384.30551637 -158.09205006 384.30547549 -156.91478226 384.30543337 C-138.39463677 384.30502688 -119.8745116 384.31459719 -101.35437199 384.32869562 C-82.33941846 384.34305654 -63.32447486 384.34996596 -44.30951577 384.34910184 C-33.63350174 384.34876978 -22.95750902 384.35152099 -12.28149986 384.36227989 C-3.19209709 384.37138114 5.89727471 384.37356322 14.98668007 384.36677047 C19.62369357 384.3635034 24.26064763 384.36345536 28.89765549 384.37212372 C33.14464404 384.3799813 37.39152593 384.37856485 41.63851186 384.36983959 C43.17280329 384.36830297 44.70710265 384.37012685 46.24138472 384.37569966 C61.37012518 384.65375927 61.37012518 384.65375927 74.60191345 378.12025452 C86.65949535 365.97592742 83.60191345 353.85892299 83.60191345 336.12025452 C-58.95808655 336.12025452 -201.51808655 336.12025452 -348.39808655 336.12025452 Z M-180.39808655 400.12025452 C-181.38808655 404.74025452 -182.37808655 409.36025452 -183.39808655 414.12025452 C-185.8042862 420.3763736 -188.40193122 426.12794385 -191.39808655 432.12025452 C-152.45808655 432.12025452 -113.51808655 432.12025452 -73.39808655 432.12025452 C-75.70808655 427.17025452 -78.01808655 422.22025452 -80.39808655 417.12025452 C-82.19636993 411.30580492 -83.39857216 406.11734086 -84.39808655 400.12025452 C-116.07808655 400.12025452 -147.75808655 400.12025452 -180.39808655 400.12025452 Z M-254.64808655 457.55775452 C-258.66799241 462.53528193 -259.86025576 466.65285499 -259.7223053 473.03041077 C-259.52607817 475.34345488 -259.52607817 475.34345488 -257.58558655 477.62025452 C-254.47030659 479.75644649 -251.98162455 480.24534533 -248.29753399 480.25168228 C-247.4592461 480.25552343 -246.62095821 480.25936457 -245.75726765 480.26332211 C-244.37577313 480.26202239 -244.37577313 480.26202239 -242.96636963 480.26069641 C-241.98798718 480.26366753 -241.00960474 480.26663866 -240.00157434 480.26969981 C-236.70819941 480.27840305 -233.41486075 480.27989643 -230.12147522 480.28138733 C-227.76626507 480.28601433 -225.41105568 480.29103883 -223.05584717 480.2964325 C-215.97803112 480.31094002 -208.90022285 480.31694207 -201.82239458 480.32182801 C-198.489397 480.32440543 -195.15640073 480.32819565 -191.82340431 480.33194733 C-180.7443453 480.3441399 -169.66528822 480.35443928 -158.58622265 480.35782242 C-157.87711068 480.35804198 -157.16799872 480.35826155 -156.43739851 480.35848777 C-155.37118282 480.35881519 -155.37118282 480.35881519 -154.28342742 480.35914922 C-152.84305012 480.35959268 -151.40267283 480.36003925 -149.96229553 480.36048889 C-148.89057977 480.36082104 -148.89057977 480.36082104 -147.79721317 480.36115989 C-136.21987932 480.36510799 -124.64260841 480.38256239 -113.06529888 480.40584841 C-101.17970199 480.4295616 -89.29413668 480.44202425 -77.40851575 480.44319034 C-70.7349107 480.44410711 -64.06137646 480.45017832 -57.38779259 480.46800995 C-51.11121403 480.48445422 -44.83479131 480.4866638 -38.55819893 480.47787094 C-36.25314289 480.47709863 -33.9480786 480.48146873 -31.64304352 480.49132919 C-28.49876019 480.50399208 -25.35503349 480.49820243 -22.21075439 480.48774719 C-21.29645021 480.4958036 -20.38214603 480.50386 -19.44013566 480.51216054 C-14.35633136 480.47256588 -10.78561607 479.99014579 -6.39808655 477.12025452 C-4.39015221 473.10438584 -4.78739697 468.23627446 -6.0113678 463.99525452 C-8.8478966 457.59744506 -13.86792692 452.96938575 -20.02308655 449.74525452 C-25.66702886 448.26000654 -31.14498478 447.97508926 -36.95553589 447.98654175 C-37.80369124 447.98427619 -38.65184658 447.98201064 -39.52570361 447.97967643 C-42.36053856 447.97335915 -45.19532542 447.97416433 -48.03016663 447.97499084 C-50.06568463 447.97199793 -52.10120206 447.9685951 -54.13671875 447.96481323 C-59.66158797 447.9559824 -65.1864417 447.9536355 -70.7113173 447.95299745 C-74.16446675 447.95228642 -77.61761226 447.95015109 -81.07076073 447.94750023 C-93.12168503 447.93824981 -105.17259827 447.93416496 -117.223526 447.93495178 C-128.45018004 447.93555248 -139.67678602 447.92500143 -150.9034279 447.90920812 C-160.54777337 447.89612504 -170.19210315 447.89076821 -179.83645743 447.89140719 C-185.5940407 447.89166196 -191.35158124 447.88882265 -197.10915565 447.87822914 C-202.52558975 447.8685353 -207.94194039 447.86847785 -213.35837746 447.87574577 C-215.34288658 447.87679001 -217.32740093 447.87443827 -219.31190109 447.86838531 C-222.02792691 447.86063967 -224.74366639 447.86532718 -227.45968628 447.87301636 C-228.23869523 447.86787279 -229.01770419 447.86272923 -229.82031947 447.8574298 C-239.89440059 447.92014069 -247.70009568 449.85636705 -254.64808655 457.55775452 Z " fill="#576DE9" transform="translate(372.39808654785156,7.8797454833984375)"/>
<path d="M0 0 C1.06992187 0.474375 2.13984375 0.94875 3.2421875 1.4375 C19.75466286 9.51889971 30.60523995 22.82755446 37 40 C41.30117326 53.9146728 41.09524021 71.68480263 35 85 C34.525625 86.06992188 34.05125 87.13984375 33.5625 88.2421875 C25.53996296 104.63439059 12.16715507 115.82260053 -5 122 C-22.41824347 127.05634913 -41.59366026 125.04005104 -57.41772461 116.46020508 C-72.85764719 107.52172136 -82.86748581 93.36904589 -88.11328125 76.3984375 C-91.19627114 63.38867917 -90.58043482 47.19059274 -85 35 C-84.2884375 33.39511719 -84.2884375 33.39511719 -83.5625 31.7578125 C-75.48110029 15.24533714 -62.17244554 4.39476005 -45 -2 C-31.0853272 -6.30117326 -13.31519737 -6.09524021 0 0 Z M-61.40625 29.0625 C-71.24890124 41.02807602 -73.46520632 53.92634446 -72 69 C-69.65958771 81.39861275 -61.89285948 92.34700605 -51.6875 99.65625 C-39.60489325 107.3589118 -26.52953219 108.98759709 -12.5234375 106.34375 C0.49925334 102.44030778 11.12737247 93.35070272 17.7109375 81.57421875 C23.33801871 70.33710809 24.05039372 56.55336095 20.4375 44.5 C15.05666194 30.80159888 4.93212023 21.09272151 -8.23046875 14.9609375 C-27.37857545 7.90810646 -47.80219081 14.68839973 -61.40625 29.0625 Z " fill="#2996DC" transform="translate(425,52)"/>
<path d="M0 0 C8.34468007 4.97590182 13.53387008 11.86345977 16.109375 21.2578125 C17.10789012 32.35758522 16.45884702 41.9922991 9.359375 51.0703125 C3.70168013 57.1280464 -3.34488592 60.84888618 -11.625 61.59375 C-22.35447774 61.83515993 -31.19802606 60.58332943 -39.359375 52.9609375 C-46.75303791 44.73737365 -48.47252567 36.02335615 -48.203125 25.24609375 C-47.72879865 16.86039919 -44.11592977 9.8548755 -37.890625 4.2578125 C-27.15195714 -3.81766573 -12.32399863 -5.91386512 0 0 Z M-29.265625 20.8828125 C-31.46970393 25.46051489 -31.6877889 29.26333661 -30.890625 34.2578125 C-28.56093569 39.09639798 -25.72921048 41.92812319 -20.890625 44.2578125 C-15.89614911 45.0549764 -12.09332739 44.83689143 -7.515625 42.6328125 C-3.93154787 39.39007605 -1.29527259 36.79305354 -0.5078125 31.859375 C-0.25178581 26.17558256 -0.95435568 22.60842595 -4.890625 18.2578125 C-9.24123845 14.32154318 -12.80839506 13.61897331 -18.4921875 13.875 C-23.42586604 14.66246009 -26.02288855 17.29873537 -29.265625 20.8828125 Z " fill="#2996DC" transform="translate(415.890625,82.7421875)"/>
<path d="M0 0 C26.4 0 52.8 0 80 0 C80 5.28 80 10.56 80 16 C53.6 16 27.2 16 0 16 C0 10.72 0 5.44 0 0 Z " fill="#596BEA" transform="translate(360,264)"/>
<path d="M0 0 C26.4 0 52.8 0 80 0 C80 5.28 80 10.56 80 16 C53.6 16 27.2 16 0 16 C0 10.72 0 5.44 0 0 Z " fill="#5074E7" transform="translate(360,232)"/>
<path d="M0 0 C5.28 0 10.56 0 16 0 C16 5.28 16 10.56 16 16 C10.72 16 5.44 16 0 16 C0 10.72 0 5.44 0 0 Z " fill="#7652F2" transform="translate(120,360)"/>
<path d="M0 0 C5.28 0 10.56 0 16 0 C16 5.28 16 10.56 16 16 C10.72 16 5.44 16 0 16 C0 10.72 0 5.44 0 0 Z " fill="#7652F2" transform="translate(88,360)"/>
<path d="M0 0 C5.28 0 10.56 0 16 0 C16 5.28 16 10.56 16 16 C10.72 16 5.44 16 0 16 C0 10.72 0 5.44 0 0 Z " fill="#7652F2" transform="translate(56,360)"/>
<path d="M0 0 C5.28 0 10.56 0 16 0 C16 5.28 16 10.56 16 16 C10.72 16 5.44 16 0 16 C0 10.72 0 5.44 0 0 Z " fill="#6363ED" transform="translate(424,296)"/>
<path d="M0 0 C5.28 0 10.56 0 16 0 C16 5.28 16 10.56 16 16 C10.72 16 5.44 16 0 16 C0 10.72 0 5.44 0 0 Z " fill="#6363ED" transform="translate(392,296)"/>
<path d="M0 0 C5.28 0 10.56 0 16 0 C16 5.28 16 10.56 16 16 C10.72 16 5.44 16 0 16 C0 10.72 0 5.44 0 0 Z " fill="#6363ED" transform="translate(360,296)"/>
</svg>
