<?xml version="1.0" encoding="UTF-8"?>
<svg version="1.1" xmlns="http://www.w3.org/2000/svg" width="512" height="512">
<path d="M0 0 C79.2 0 158.4 0 240 0 C240 21.12 240 42.24 240 64 C234.72 64 229.44 64 224 64 C223.67 65.65 223.34 67.3 223 69 C219.33553751 83.42033852 211.45219426 94.77184998 202 106 C200.68 107.65 199.36 109.3 198 111 C243.54 111.33 289.08 111.66 336 112 C336 122.56 336 133.12 336 144 C346.56 144 357.12 144 368 144 C368 254.88 368 365.76 368 480 C266.125 480.0625 266.125 480.0625 233.96923828 480.02758789 C224.44918872 480.05077784 224.44918872 480.05077784 214.9291687 480.08323669 C210.69193324 480.09743535 206.45520902 480.09207599 202.21798706 480.07481384 C196.80767407 480.05341646 191.39840327 480.06563755 185.98817992 480.10187232 C184.00606066 480.10948388 182.02385285 480.10543207 180.04179406 480.08817875 C168.97208597 479.99884276 161.51335718 480.13874629 153 488 C149.49609375 489.92578125 149.49609375 489.92578125 146.4375 491.3125 C144.91962891 492.01826172 144.91962891 492.01826172 143.37109375 492.73828125 C129.61198093 497.88798396 110.67745768 498.63080119 97 493 C84.12744019 487.03935713 84.12744019 487.03935713 79.81476307 482.90523911 C76.10644772 480.39517796 72.94104247 480.43814323 68.61613464 480.48101807 C67.77675858 480.47352036 66.93738251 480.46602264 66.0725708 480.45829773 C63.25280215 480.43796543 60.43383434 480.44616323 57.61401367 480.45410156 C55.56087362 480.44530414 53.50774043 480.43475807 51.4546175 480.42260361 C45.95404657 480.39487364 40.45370232 480.39109226 34.95307159 480.39224243 C29.79240723 480.38970156 24.63193177 480.365602 19.47131348 480.34326172 C4.3767692 480.290495 -10.71788007 480.27236663 -25.8125 480.25 C-59.534375 480.1675 -93.25625 480.085 -128 480 C-128 369.12 -128 258.24 -128 144 C-117.44 144 -106.88 144 -96 144 C-96 133.44 -96 122.88 -96 112 C-29.67 111.505 -29.67 111.505 38 111 C35.36 107.7 32.72 104.4 30 101 C28.12178842 97.94142064 26.3871984 94.98637296 24.75 91.8125 C24.3267041 91.00167969 23.9034082 90.19085938 23.46728516 89.35546875 C19.53814967 81.56133447 16 72.8527816 16 64 C10.72 64 5.44 64 0 64 C0 42.88 0 21.76 0 0 Z M16 16 C16 26.56 16 37.12 16 48 C84.64 48 153.28 48 224 48 C224 37.44 224 26.88 224 16 C155.36 16 86.72 16 16 16 Z M33 64 C39.51853515 87.90129554 54.29298973 105.68978726 71.76953125 122.77734375 C74.37773863 125.37641555 76.78411954 128.09784581 79.171875 130.8984375 C80.50530492 132.43131207 81.87527558 133.93262122 83.265625 135.4140625 C100.16836835 153.43302475 111.8309856 171.68310296 111.30859375 197.015625 C110.29410971 219.35953073 93.98356246 237.0158645 79.41796875 252.48925781 C76.43886577 255.66327455 73.49967375 258.87455611 70.55322266 262.07885742 C68.04451236 264.80235733 65.52143216 267.50865898 62.9609375 270.18359375 C53.06692936 280.58130844 42.38552633 292.51078075 37 306 C37.33 306.66 37.66 307.32 38 308 C41.41704953 305.62555051 44.83357101 303.25034224 48.25 300.875 C49.28672852 300.15449463 50.32345703 299.43398926 51.39160156 298.69165039 C57.34451714 294.55193226 63.28582231 290.39653628 69.21362305 286.22094727 C73.13208192 283.46569247 77.06362252 280.72957071 81 278 C82.06605469 277.2575 83.13210937 276.515 84.23046875 275.75 C99.35013233 265.62658889 115.44542287 263.10233384 133.265625 265.42578125 C135.9732181 266.08646639 138.42603339 266.93105135 141 268 C142.03511719 268.42925781 143.07023437 268.85851562 144.13671875 269.30078125 C153.87256751 273.77460913 162.18076148 279.97734579 170.74951172 286.34667969 C174.26304054 288.92789223 177.84175988 291.41010159 181.4375 293.875 C182.09089355 294.32302979 182.74428711 294.77105957 183.41748047 295.23266602 C188.86687349 298.94702877 194.39658956 302.52161174 200 306 C198.52279222 301.58479009 196.12533179 298.22158763 193.25 294.625 C192.52526489 293.7119812 192.52526489 293.7119812 191.78588867 292.78051758 C185.30635533 284.74556748 178.13459301 277.34936684 170.9921875 269.90820312 C147.58538528 245.50015937 127.97701624 221.50238713 128.625 186.0703125 C129.4101727 167.99451526 138.79482288 151.74525746 150 138 C151.23363281 136.47826172 151.23363281 136.47826172 152.4921875 134.92578125 C160.4657481 125.24167133 169.14304701 116.19494549 177.79296875 107.11865234 C197.09029051 88.12054995 197.09029051 88.12054995 206 64 C148.91 64 91.82 64 33 64 Z M-80 128 C-80 228.32 -80 328.64 -80 432 C-16.64 432 46.72 432 112 432 C112 416.16 112 400.32 112 384 C75.04 384 38.08 384 0 384 C0 362.88 0 341.76 0 320 C5.28 320 10.56 320 16 320 C16.27972656 318.86304688 16.55945313 317.72609375 16.84765625 316.5546875 C24.58384926 286.2787601 44.86839468 263.8886973 66.640625 242.390625 C70.29804698 238.75249268 73.51060949 234.84453679 76.734375 230.8203125 C78.17773611 229.02357677 79.64435993 227.24511117 81.140625 225.4921875 C91.02022494 213.76487612 96.22436518 201.4351184 95.22949219 186.03222656 C93.47118307 170.46183814 81.22514198 157.87381543 71 147 C69.8055685 145.63101693 68.61739082 144.25653498 67.4375 142.875 C64.09222362 139.01076667 60.48235582 135.44554617 56.8203125 131.8828125 C55 130 55 130 54 128 C9.78 128 -34.44 128 -80 128 Z M181 128 C174.42725315 134.57274685 168.63090442 140.73187463 163 148 C162.58572754 148.52722656 162.17145508 149.05445313 161.74462891 149.59765625 C149.51441153 165.2924062 143.40117122 180.89483704 145 201 C149.23215385 223.80526329 167.68891554 243.05464318 183.76953125 258.77734375 C186.37645033 261.37513176 188.78186621 264.09491211 191.16796875 266.89453125 C192.51368241 268.4410977 193.89714428 269.95502455 195.30078125 271.44921875 C208.39714443 285.4010209 219.30400177 301.21600707 224 320 C229.28 320 234.56 320 240 320 C240 341.12 240 362.24 240 384 C203.04 384 166.08 384 128 384 C128 399.84 128 415.68 128 432 C191.36 432 254.72 432 320 432 C320 331.68 320 231.36 320 128 C274.13 128 228.26 128 181 128 Z M-112 160 C-112 260.32 -112 360.64 -112 464 C-47.19823293 464.05174544 -47.19823293 464.05174544 17.60351562 464.02758789 C30.13574219 464.05944824 30.13574219 464.05944824 36.00231934 464.08323669 C40.10048179 464.09744947 44.19811604 464.09206152 48.29626465 464.07481384 C53.5260063 464.05344601 58.7546683 464.06559237 63.98431683 464.10187232 C65.90214934 464.10949542 67.82007322 464.10540483 69.73784351 464.08817875 C85.87144334 463.95380225 85.87144334 463.95380225 91.02258301 468.44871521 C92.03402042 469.61631412 93.02993042 470.79781122 94 472 C96.60381705 473.70734991 96.60381705 473.70734991 99.0625 474.8125 C100.22458984 475.37904297 100.22458984 475.37904297 101.41015625 475.95703125 C112.94179912 480.60099603 126.66854136 480.87673285 138.30859375 476.34375 C143.1647264 473.91920772 148.90772465 470.90979306 152.13631153 466.41969585 C155.08722545 464.17178783 158.31416275 464.5785842 161.87760925 464.60127258 C163.09133209 464.59131004 163.09133209 464.59131004 164.32957458 464.58114624 C167.05862777 464.56240935 169.78724678 464.56514928 172.51635742 464.56762695 C174.49916609 464.55852679 176.4819691 464.54811511 178.4647646 464.53649426 C183.78516215 464.50894839 189.10545114 464.49940525 194.42591095 464.49352264 C199.41441114 464.48529927 204.40278073 464.46093192 209.39123535 464.43786621 C223.98993461 464.37981151 238.58872787 464.34775199 253.1875 464.3125 C302.0996875 464.1578125 302.0996875 464.1578125 352 464 C352 363.68 352 263.36 352 160 C346.72 160 341.44 160 336 160 C336 255.04 336 350.08 336 448 C193.44 448 50.88 448 -96 448 C-96 352.96 -96 257.92 -96 160 C-101.28 160 -106.56 160 -112 160 Z M89 292.375 C87.00132348 293.80471741 85.00262512 295.23440429 83.00390625 296.6640625 C81.50947998 297.7454248 81.50947998 297.7454248 79.98486328 298.84863281 C75.33697765 302.19863839 70.63625194 305.471944 65.9375 308.75 C65.12345703 309.32153809 64.30941406 309.89307617 63.47070312 310.48193359 C60.15473493 312.80967622 56.83766166 315.11882367 53.44140625 317.328125 C52.23291016 318.15570313 52.23291016 318.15570313 51 319 C51 319.33 51 319.66 51 320 C96.54 320 142.08 320 189 320 C178.05976465 311.24781172 166.59309343 303.21482138 154.99511719 295.36279297 C152.98606966 293.99048468 150.99611349 292.59356352 149.0078125 291.19140625 C128.74447779 277.03108963 109.02109923 277.66016875 89 292.375 Z M16 336 C16 346.56 16 357.12 16 368 C84.64 368 153.28 368 224 368 C224 357.44 224 346.88 224 336 C155.36 336 86.72 336 16 336 Z " fill="#5D68EB" transform="translate(136,8)"/>
<path d="M0 0 C36.96 0 73.92 0 112 0 C112 5.28 112 10.56 112 16 C75.04 16 38.08 16 0 16 C0 10.72 0 5.44 0 0 Z " fill="#4B78E6" transform="translate(328,216)"/>
<path d="M0 0 C36.96 0 73.92 0 112 0 C112 5.28 112 10.56 112 16 C75.04 16 38.08 16 0 16 C0 10.72 0 5.44 0 0 Z " fill="#4B78E6" transform="translate(72,216)"/>
<path d="M0 0 C36.96 0 73.92 0 112 0 C112 5.28 112 10.56 112 16 C75.04 16 38.08 16 0 16 C0 10.72 0 5.44 0 0 Z " fill="#3889E0" transform="translate(328,152)"/>
<path d="M0 0 C36.96 0 73.92 0 112 0 C112 5.28 112 10.56 112 16 C75.04 16 38.08 16 0 16 C0 10.72 0 5.44 0 0 Z " fill="#3889E0" transform="translate(72,152)"/>
<path d="M0 0 C26.4 0 52.8 0 80 0 C80 5.28 80 10.56 80 16 C53.6 16 27.2 16 0 16 C0 10.72 0 5.44 0 0 Z " fill="#5570E9" transform="translate(328,248)"/>
<path d="M0 0 C26.4 0 52.8 0 80 0 C80 5.28 80 10.56 80 16 C53.6 16 27.2 16 0 16 C0 10.72 0 5.44 0 0 Z " fill="#5570E9" transform="translate(72,248)"/>
<path d="M0 0 C26.4 0 52.8 0 80 0 C80 5.28 80 10.56 80 16 C53.6 16 27.2 16 0 16 C0 10.72 0 5.44 0 0 Z " fill="#4180E3" transform="translate(360,184)"/>
<path d="M0 0 C26.4 0 52.8 0 80 0 C80 5.28 80 10.56 80 16 C53.6 16 27.2 16 0 16 C0 10.72 0 5.44 0 0 Z " fill="#4180E3" transform="translate(104,184)"/>
<path d="M0 0 C5.28 0 10.56 0 16 0 C16 5.28 16 10.56 16 16 C10.72 16 5.44 16 0 16 C0 10.72 0 5.44 0 0 Z " fill="#5570E9" transform="translate(424,248)"/>
<path d="M0 0 C5.28 0 10.56 0 16 0 C16 5.28 16 10.56 16 16 C10.72 16 5.44 16 0 16 C0 10.72 0 5.44 0 0 Z " fill="#5570E9" transform="translate(168,248)"/>
<path d="M0 0 C5.28 0 10.56 0 16 0 C16 5.28 16 10.56 16 16 C10.72 16 5.44 16 0 16 C0 10.72 0 5.44 0 0 Z " fill="#4180E3" transform="translate(328,184)"/>
<path d="M0 0 C5.28 0 10.56 0 16 0 C16 5.28 16 10.56 16 16 C10.72 16 5.44 16 0 16 C0 10.72 0 5.44 0 0 Z " fill="#4180E3" transform="translate(72,184)"/>
</svg>
